<svg width="595" height="177" viewBox="0 0 595 177" fill="none" xmlns="http://www.w3.org/2000/svg">
<line x1="0.25" y1="1" x2="0.249992" y2="177" stroke="white" stroke-width="0.5" stroke-dasharray="2 2"/>
<line x1="16.25" y1="1" x2="16.25" y2="177" stroke="white" stroke-width="0.5" stroke-dasharray="2 2"/>
<line x1="32.25" y1="1" x2="32.25" y2="177" stroke="white" stroke-width="0.5" stroke-dasharray="2 2"/>
<line x1="48.25" y1="1" x2="48.25" y2="177" stroke="white" stroke-width="0.5" stroke-dasharray="2 2"/>
<line x1="64.25" y1="1" x2="64.25" y2="177" stroke="white" stroke-width="0.5" stroke-dasharray="2 2"/>
<line x1="80.25" y1="1" x2="80.25" y2="177" stroke="white" stroke-width="0.5" stroke-dasharray="2 2"/>
<line x1="96.25" y1="1" x2="96.25" y2="177" stroke="white" stroke-width="0.5" stroke-dasharray="2 2"/>
<line x1="112.25" y1="1" x2="112.25" y2="177" stroke="white" stroke-width="0.5" stroke-dasharray="2 2"/>
<line x1="128.25" y1="1" x2="128.25" y2="177" stroke="white" stroke-width="0.5" stroke-dasharray="2 2"/>
<line x1="144.25" y1="1" x2="144.25" y2="177" stroke="white" stroke-width="0.5" stroke-dasharray="2 2"/>
<line x1="160.25" y1="1" x2="160.25" y2="177" stroke="white" stroke-width="0.5" stroke-dasharray="2 2"/>
<line x1="176.25" y1="1" x2="176.25" y2="177" stroke="white" stroke-width="0.5" stroke-dasharray="2 2"/>
<line x1="192.25" y1="1" x2="192.25" y2="177" stroke="white" stroke-width="0.5" stroke-dasharray="2 2"/>
<line x1="208.25" y1="1" x2="208.25" y2="177" stroke="white" stroke-width="0.5" stroke-dasharray="2 2"/>
<line x1="224.25" y1="1" x2="224.25" y2="177" stroke="white" stroke-width="0.5" stroke-dasharray="2 2"/>
<line x1="240.25" y1="1" x2="240.25" y2="177" stroke="white" stroke-width="0.5" stroke-dasharray="2 2"/>
<line x1="256.25" y1="1" x2="256.25" y2="177" stroke="white" stroke-width="0.5" stroke-dasharray="2 2"/>
<line x1="272.25" y1="1" x2="272.25" y2="177" stroke="white" stroke-width="0.5" stroke-dasharray="2 2"/>
<line x1="288.25" y1="1" x2="288.25" y2="177" stroke="white" stroke-width="0.5" stroke-dasharray="2 2"/>
<line x1="304.25" y1="1" x2="304.25" y2="177" stroke="white" stroke-width="0.5" stroke-dasharray="2 2"/>
<line x1="320.25" y1="1" x2="320.25" y2="177" stroke="white" stroke-width="0.5" stroke-dasharray="2 2"/>
<line x1="336.25" y1="1" x2="336.25" y2="177" stroke="white" stroke-width="0.5" stroke-dasharray="2 2"/>
<line x1="352.25" y1="1" x2="352.25" y2="177" stroke="white" stroke-width="0.5" stroke-dasharray="2 2"/>
<line x1="368.25" y1="1" x2="368.25" y2="177" stroke="white" stroke-width="0.5" stroke-dasharray="2 2"/>
<line x1="384.25" y1="1" x2="384.25" y2="177" stroke="white" stroke-width="0.5" stroke-dasharray="2 2"/>
<line x1="400.25" y1="1" x2="400.25" y2="177" stroke="white" stroke-width="0.5" stroke-dasharray="2 2"/>
<line x1="416.25" y1="1" x2="416.25" y2="177" stroke="white" stroke-width="0.5" stroke-dasharray="2 2"/>
<line x1="432.25" y1="1" x2="432.25" y2="177" stroke="white" stroke-width="0.5" stroke-dasharray="2 2"/>
<line x1="448.25" y1="1" x2="448.25" y2="177" stroke="white" stroke-width="0.5" stroke-dasharray="2 2"/>
<line x1="464.25" y1="1" x2="464.25" y2="177" stroke="white" stroke-width="0.5" stroke-dasharray="2 2"/>
<line x1="480.25" y1="1" x2="480.25" y2="177" stroke="white" stroke-width="0.5" stroke-dasharray="2 2"/>
<line x1="496.25" y1="1" x2="496.25" y2="177" stroke="white" stroke-width="0.5" stroke-dasharray="2 2"/>
<line x1="512.25" y1="1" x2="512.25" y2="177" stroke="white" stroke-width="0.5" stroke-dasharray="2 2"/>
<line x1="528.25" y1="1" x2="528.25" y2="177" stroke="white" stroke-width="0.5" stroke-dasharray="2 2"/>
<line x1="544.25" y1="1" x2="544.25" y2="177" stroke="white" stroke-width="0.5" stroke-dasharray="2 2"/>
<line x1="560.25" y1="1" x2="560.25" y2="177" stroke="white" stroke-width="0.5" stroke-dasharray="2 2"/>
<line x1="576.25" y1="1" x2="576.25" y2="177" stroke="white" stroke-width="0.5" stroke-dasharray="2 2"/>
<line x1="592.25" y1="1" x2="592.25" y2="177" stroke="white" stroke-width="0.5" stroke-dasharray="2 2"/>
<line y1="0.75" x2="595" y2="0.75" stroke="white" stroke-width="0.5" stroke-dasharray="2 2"/>
<line y1="15.2955" x2="595" y2="15.2955" stroke="white" stroke-width="0.5" stroke-dasharray="2 2"/>
<line y1="29.8409" x2="595" y2="29.8409" stroke="white" stroke-width="0.5" stroke-dasharray="2 2"/>
<line y1="44.3864" x2="595" y2="44.3864" stroke="white" stroke-width="0.5" stroke-dasharray="2 2"/>
<line y1="58.9318" x2="595" y2="58.9318" stroke="white" stroke-width="0.5" stroke-dasharray="2 2"/>
<line y1="73.4773" x2="595" y2="73.4773" stroke="white" stroke-width="0.5" stroke-dasharray="2 2"/>
<line y1="88.0227" x2="595" y2="88.0227" stroke="white" stroke-width="0.5" stroke-dasharray="2 2"/>
<line y1="102.568" x2="595" y2="102.568" stroke="white" stroke-width="0.5" stroke-dasharray="2 2"/>
<line y1="117.114" x2="595" y2="117.114" stroke="white" stroke-width="0.5" stroke-dasharray="2 2"/>
<line y1="131.659" x2="595" y2="131.659" stroke="white" stroke-width="0.5" stroke-dasharray="2 2"/>
<line y1="146.205" x2="595" y2="146.205" stroke="white" stroke-width="0.5" stroke-dasharray="2 2"/>
<line y1="160.75" x2="595" y2="160.75" stroke="white" stroke-width="0.5" stroke-dasharray="2 2"/>
</svg>
