<svg width="48" height="48" viewBox="0 0 48 48" fill="none" xmlns="http://www.w3.org/2000/svg">
<rect width="48" height="48" rx="24" fill="#155EEF"/>
<path fill-rule="evenodd" clip-rule="evenodd" d="M22.0839 5.17566C20.2097 5.17566 18.2712 6.64335 17.5842 7.57993C17.0066 8.36735 16.6956 11.9281 16.6956 14.3344C16.6956 14.8377 16.4207 15.7864 16.5009 16.2678C16.7949 18.0319 18.0757 19.5113 20.6106 19.5113C23.1455 19.5113 24.963 18.4962 26.8472 15.7706C27.7614 15.7706 28.2044 15.0623 28.2108 13.9445C28.2173 12.8268 27.3284 12.4201 27.3284 12.4201C27.3284 12.4201 27.6453 8.00891 26.8472 6.86044C26.049 5.71198 23.9581 5.17566 22.0839 5.17566Z" fill="white"/>
<path fill-rule="evenodd" clip-rule="evenodd" d="M22.8728 4.5519C21.6895 4.43085 20.5299 4.53256 19.3638 4.74302C19.2747 4.75932 19.2241 4.81838 19.2054 4.88938C18.6561 4.91472 18.1062 4.95544 17.5576 4.98579C17.3586 4.99679 17.2457 5.19551 17.3365 5.37495C17.3546 5.4106 17.3735 5.44528 17.3926 5.47996L17.3686 5.47195C17.2035 5.41847 17.0253 5.3921 16.8645 5.477C16.6598 5.58504 16.5796 5.82344 16.6248 6.04287C16.6364 6.09889 16.6558 6.15258 16.678 6.20497C16.6331 6.20197 16.5879 6.20297 16.543 6.20897C16.304 6.24099 16.1264 6.42607 16.1139 6.67251C16.0954 7.04463 16.3327 7.42216 16.6123 7.68857C16.5717 7.77297 16.5562 7.87235 16.573 7.97306C16.6067 8.17214 16.7519 8.29136 16.9201 8.36913C16.85 8.59426 16.8168 8.82963 16.8364 9.07016C16.8429 9.15046 16.9124 9.21679 16.9858 9.23306C16.7123 9.99386 16.5739 10.8107 16.4743 11.6066C16.4033 12.1729 16.3684 12.7424 16.3641 13.313C16.362 13.5706 16.3662 13.8284 16.3769 14.0861L16.3812 14.1827C16.3944 14.4612 16.3951 14.7536 16.4446 15.0291C16.2756 15.3195 16.2076 15.68 16.1789 16.0055C16.1432 16.4083 16.1997 16.8238 16.3255 17.207C16.8001 18.6549 18.2326 19.5686 19.6714 19.8061C21.0032 20.0259 22.5444 19.7301 23.3227 18.5079C23.3349 18.4885 23.3088 18.4725 23.2936 18.4852C22.7368 18.9427 22.0909 19.1468 21.3891 19.2462C20.1758 19.4176 18.8119 19.1268 17.8382 18.3558C17.3708 17.9857 17.0338 17.4468 16.8856 16.8668C16.81 16.5704 16.7839 16.2612 16.8137 15.9561C16.844 15.6467 16.9796 15.3826 17.0651 15.0901C17.0939 14.9914 17.0635 14.8996 17.0037 14.8343C16.9869 14.5969 16.9473 14.3574 16.9321 14.1207C16.9153 13.8515 16.9051 13.5824 16.9014 13.313C16.8945 12.7541 16.9176 12.1942 16.9641 11.6376C17.0493 10.6185 17.2754 9.6241 17.4081 8.61363C17.4572 8.65815 17.5276 8.67643 17.6015 8.63754L17.6091 8.63331L17.6494 8.61C17.6517 8.61 17.6543 8.61033 17.6567 8.61063C17.9322 8.63768 18.2181 8.59899 18.4821 8.51592C18.7584 8.42925 19.0149 8.29586 19.244 8.11812C19.2875 8.34118 19.3057 8.56661 19.306 8.79404C19.3063 8.9361 19.4552 9.00984 19.5734 8.94914C20.0972 8.68033 20.5976 8.37056 21.0726 8.02241C21.128 8.30954 21.1835 8.59663 21.2393 8.88408C21.2607 8.99483 21.4004 9.03951 21.4898 8.98683C21.8456 8.7777 22.1529 8.50395 22.4031 8.17845C22.453 8.27496 22.5031 8.37145 22.5536 8.46773L22.6295 8.61197C22.7044 8.75369 22.8048 8.91046 22.9688 8.95578C23.1425 9.0038 23.2874 8.89012 23.3458 8.73135C23.3636 8.68203 23.3801 8.63131 23.3953 8.58029C23.5432 8.92146 23.7102 9.25494 23.899 9.57308C24.1822 10.0502 24.5222 10.4754 24.8611 10.9116C24.9641 11.044 25.1404 10.9176 25.1546 10.7889C25.1628 10.7132 25.1698 10.6372 25.1757 10.5615C25.3733 10.9642 25.5794 11.3631 25.8039 11.7505L25.7718 11.8778V11.8778C25.6791 12.2539 25.6022 12.6326 25.5185 13.0107C25.4915 13.1327 25.5557 13.3071 25.6968 13.3279C25.8653 13.3527 26.0248 13.4397 26.1974 13.3798C26.3856 13.3145 26.4228 13.1502 26.5117 12.9944C26.5294 12.9633 26.55 12.9348 26.5722 12.9077L26.5779 12.9151V12.9151C26.5917 12.9335 26.6247 12.9135 26.6165 12.8925L26.6068 12.8682V12.8682C26.6832 12.7863 26.7745 12.7181 26.8585 12.6446C27.0582 12.6106 27.2827 12.6478 27.4202 12.7298C27.7335 12.9165 27.8774 13.3013 27.8803 13.6551C27.884 14.0693 27.7569 14.5349 27.5424 14.889C27.4479 15.0447 27.3185 15.1854 27.1476 15.2545C26.9779 15.3232 26.7941 15.3019 26.6214 15.3665C26.5072 15.4096 26.4369 15.5376 26.5059 15.6536C26.5105 15.6617 26.5158 15.669 26.5208 15.6767L26.4694 15.7455C26.4341 15.7932 26.3973 15.8443 26.363 15.8974C26.2752 15.9995 26.1828 16.0979 26.0933 16.1982C25.928 16.3833 25.7675 16.5734 25.6048 16.7611C25.4513 16.9382 25.2889 17.1046 25.1216 17.2683C24.9635 17.4234 24.7661 17.5538 24.6209 17.7192C24.4796 17.8806 24.4413 18.1624 24.6737 18.2558C24.9308 18.3594 25.1584 18.1166 25.3315 17.9547L25.3388 17.9479C25.656 17.653 25.9425 17.3159 26.1701 16.9448C26.3954 17.0998 26.7214 17.1146 26.9458 16.9596C27.0639 16.8781 27.1545 16.7411 27.1986 16.592C27.2401 16.6014 27.2816 16.6069 27.322 16.6063C27.3429 16.6185 27.3638 16.6304 27.3849 16.6414C27.5523 16.7294 27.7579 16.6901 27.8345 16.503C27.9042 16.3331 27.8323 16.1402 27.7695 15.9766L27.7566 15.9428C27.7209 15.8494 27.6816 15.7477 27.6328 15.652C27.7688 15.5486 27.885 15.4202 27.9833 15.2742C28.3137 14.7823 28.4788 14.063 28.4058 13.4761C28.3619 13.1219 28.1972 12.7551 27.9276 12.5163L27.9374 12.4903V12.4903C28.013 12.2966 28.0817 12.1021 28.1262 11.8974C28.1784 11.658 28.2038 11.4099 28.2269 11.1661C28.2758 10.6512 28.2626 10.1246 28.1975 9.61176C28.0754 8.64635 27.7658 7.69861 27.2162 6.89527C27.3721 6.70682 27.4955 6.48506 27.4311 6.22998C27.4017 6.1129 27.3348 6.00189 27.2337 5.93482C27.178 5.89784 27.1116 5.89217 27.0558 5.86149L27.039 5.85216C27.0145 5.83772 27.0333 5.83925 27.0479 5.77212C27.1057 5.50397 27.0578 5.2449 26.7657 5.15586C26.4907 5.07216 26.2306 5.2499 26.0679 5.46166C25.6421 5.15649 25.081 4.99679 24.5875 4.86107C24.0264 4.7073 23.4508 4.61129 22.8728 4.5519ZM27.4716 13.5457C27.4737 13.3273 27.2687 13.1926 27.067 13.2283C26.9315 13.2521 26.8185 13.3338 26.7125 13.4182L26.6607 13.4595C26.5315 13.562 26.3832 13.6725 26.3062 13.8176C26.1933 14.0316 26.4319 14.3197 26.6547 14.1697C26.8075 14.0662 26.9055 13.9004 27.0058 13.7464L27.0161 13.7305C27.0617 13.6615 27.1016 13.5881 27.1641 13.5327L27.1775 13.5208C27.198 13.5031 27.2201 13.487 27.2466 13.4794C27.2977 13.4645 27.3923 13.4853 27.4149 13.5468L27.4169 13.5531C27.4251 13.5841 27.4713 13.5774 27.4716 13.5457Z" fill="black"/>
<path fill-rule="evenodd" clip-rule="evenodd" d="M15.7173 25.2415C16.0039 25.1382 16.2802 25.019 16.5319 24.8435C17.2575 24.2979 17.7307 23.4767 18.1777 22.6987C18.8074 21.5671 19.256 20.3613 19.5661 19.1034C19.6994 18.563 19.7446 17.9364 20.0474 17.4573C20.7337 16.454 22.7461 16.584 23.8147 16.7601C24.5303 16.888 24.6782 17.6971 24.8407 18.2958C24.9761 18.7932 25.0647 19.2963 25.139 19.8061C25.316 19.9237 25.5157 20.0191 25.7061 20.1022C27.7809 20.745 28.1455 21.9366 28.938 23.7774C30.2765 26.4528 33.9085 27.5003 34.4571 30.6667C34.8106 32.7571 33.8054 34.7237 32.7691 36.4615C31.8039 38.3596 30.4565 39.2707 28.3107 38.8222C26.2981 38.3661 24.3639 37.6031 22.3867 37.0135C21.429 36.7756 20.4729 36.1569 19.4656 36.3726C17.3899 36.8436 15.2573 37.065 13.1301 37.0039C10.1434 37.1259 10.1439 34.2298 10.4504 31.9871C10.6651 28.4969 12.4076 26.2558 15.7173 25.2415V25.2415Z" fill="white"/>
<path fill-rule="evenodd" clip-rule="evenodd" d="M15.5178 30.2917C15.2682 30.4585 15.0583 30.7113 14.8898 30.9773C15.5933 30.9034 16.2955 30.8182 16.9962 30.7211C16.9045 30.6619 16.8119 30.604 16.7172 30.5493C16.3717 30.3526 15.9036 30.034 15.5178 30.2917ZM27.2051 32.3926C27.3339 32.3416 27.3838 32.143 27.4341 32.0292C27.5916 31.6723 27.7353 31.3093 27.8849 30.9489C27.317 30.7854 26.7648 30.6039 26.1765 30.5168C25.544 30.4231 24.9022 30.4004 24.2638 30.4215C22.9708 30.4641 21.6897 30.6776 20.4185 30.9065C19.1487 31.1352 17.879 31.3549 16.6004 31.5273C15.3477 31.6962 14.091 31.8198 12.832 31.9283C12.5873 31.9494 12.1795 32.0383 11.9827 31.8438C11.827 31.6898 11.8219 31.4057 12.0168 31.2805C12.1382 31.2024 12.3141 31.2013 12.4528 31.1833C12.6275 31.1606 12.8029 31.1455 12.9786 31.1337C13.0502 31.1289 13.1218 31.1245 13.1934 31.1201C12.6185 30.9011 12.0181 30.7817 11.3948 30.815C11.3596 31.0313 11.2008 31.2539 11.1139 31.4323C10.9621 31.7438 10.8438 32.059 10.7662 32.3977C10.6038 33.1056 10.5968 33.8403 10.6426 34.5623C10.6847 35.1643 10.7752 35.8302 11.2426 36.2565C11.5965 36.5793 12.0957 36.6988 12.5589 36.7364C13.0973 36.7801 13.6439 36.7334 14.1778 36.6605C14.9265 36.5583 15.6787 36.423 16.4128 36.2417C17.8344 35.8907 19.1971 35.332 20.4543 34.5746C21.0674 34.2053 21.6525 33.7898 22.274 33.4345C22.9073 33.0724 23.5812 32.7915 24.2888 32.6171C25.0807 32.4219 25.9085 32.3386 26.7224 32.3868C26.8636 32.3951 27.0677 32.4469 27.2051 32.3926ZM28.1228 32.0301C28.0395 32.303 27.9759 32.6145 27.7983 32.8437C27.6223 33.0709 27.3569 33.151 27.082 33.1712C26.7504 33.1955 26.415 33.18 26.0828 33.1924C25.4013 33.218 24.7292 33.3298 24.0778 33.535C23.4707 33.7261 22.9072 34.0243 22.3644 34.3551C21.8624 34.6611 21.3751 34.9895 20.873 35.2945C21.0066 35.3564 21.1388 35.4234 21.2716 35.4816C21.5503 35.6039 21.8306 35.7218 22.1122 35.8369C22.6676 36.0636 23.2253 36.2849 23.7887 36.4904C24.9247 36.9049 26.0795 37.267 27.2481 37.5755C27.8055 37.7226 28.3707 37.8945 28.9498 37.919C29.4632 37.9406 29.9389 37.794 30.353 37.4856C31.2119 36.8458 31.8952 35.9224 32.4476 35.0116C32.7758 34.4705 33.0622 33.9019 33.2991 33.314C33.419 33.0167 33.5276 32.7149 33.6254 32.4095C33.6713 32.2661 33.7148 32.1219 33.756 31.977C33.7741 31.9133 33.7915 31.8494 33.8087 31.7855C32.9304 31.5147 32.0417 31.2703 31.1321 31.1346C30.6464 31.0621 30.1543 31.0254 29.6634 31.0307C29.4197 31.0334 29.1761 31.0467 28.9337 31.0721C28.8032 31.0858 28.6733 31.1034 28.5439 31.1252C28.4904 31.1342 28.4355 31.1474 28.3803 31.1572C28.2961 31.4487 28.2112 31.74 28.1228 32.0301ZM9.96738 30.8712C9.92005 30.7745 9.90008 30.6793 9.88312 30.574C9.87018 30.4937 9.83585 30.3806 9.86592 30.2763C9.89959 30.1594 9.99131 30.055 10.0572 29.9553C10.1299 29.8452 10.2025 29.735 10.2751 29.6248C10.4202 29.4043 10.565 29.1837 10.7096 28.9628C11.3 28.0611 11.8864 27.1567 12.4737 26.2529C12.9949 25.4509 13.5073 24.6417 14.0443 23.8504C14.5036 23.1738 15.0041 22.5083 15.6327 21.9821C16.4275 21.3167 17.3739 21.0033 18.3624 20.7587C18.4704 20.6455 18.6146 20.5837 18.7687 20.5962C18.9865 20.3467 19.1596 20.1724 19.2381 19.8551C19.2757 19.7031 19.2639 19.276 19.4104 19.186C19.5844 19.0792 19.6753 19.2206 19.7233 19.38C19.8839 19.9132 19.6996 20.6301 19.2755 21.1642C19.4542 21.7882 19.6911 22.675 20.1138 23.1749C20.5663 23.7101 21.1923 23.8767 21.8676 23.8877C23.1555 23.9086 24.442 23.4251 25.4243 22.587C25.7229 22.3323 26.0002 22.0478 26.2511 21.7452C26.4393 21.5182 26.6619 21.1679 26.8091 20.9031C26.8091 20.7999 26.9297 20.692 25.702 20.6087C24.4744 20.5253 24.3813 18.827 24.354 18.5959C24.3318 18.4082 24.2375 18.1169 24.3684 17.9638C24.4239 17.8989 24.5379 17.8884 24.6084 17.9325C24.7412 18.0159 24.7848 18.229 24.8266 18.3737C24.8851 18.5764 25.0763 19.8345 25.4386 19.9801C25.6082 20.0483 25.8028 20.0496 25.9822 20.0622C26.2038 20.0778 26.4258 20.0893 26.6465 20.1153C26.7279 20.1249 26.8167 20.1515 26.897 20.1523C26.9492 20.1528 27.0032 20.1272 27.0537 20.1092C27.2241 20.0483 27.3944 20.094 27.57 20.1178C29.1226 20.3286 30.7211 20.8097 32.0454 21.6754C33.2126 22.4384 34.0349 23.5357 34.5775 24.8186C35.1312 26.1279 35.4485 27.5437 35.7144 28.9375C35.8035 29.4045 35.8813 29.8737 35.9481 30.3445C36.0127 30.7994 36.0935 31.2644 36.1129 31.7239C36.1205 31.9057 36.0775 32.0746 36.0114 32.2407C35.9368 32.4276 35.7607 32.5013 35.5917 32.5886C35.2208 32.7803 34.8295 32.9289 34.4264 33.0342C34.1801 33.4868 33.9729 33.9571 33.8063 34.4452C33.8681 34.5689 33.8694 34.7536 33.8813 34.8739C33.9108 35.1732 33.9234 35.4741 33.926 35.7749C33.9313 36.3776 33.8955 36.9798 33.8673 37.5816C33.8388 38.192 33.744 40.6003 33.7286 40.8944C33.7166 41.1229 33.7327 41.4425 33.6136 41.6453C33.4305 41.957 32.9787 41.9465 32.7695 41.6938C27.57 42.823 17.7965 42.4829 13.8602 41.9147C13.3481 41.8408 13.5089 41.9228 13.3787 41.7921C13.2809 41.6939 13.1977 41.5258 13.1707 41.3907C13.1346 41.2104 13.1929 41.0472 13.2951 40.9012C13.4025 40.7478 13.4221 40.4994 13.462 40.317C13.5564 39.8858 13.6033 37.992 13.6474 37.7821C13.6611 37.7167 13.6744 37.6476 13.6905 37.5784C12.9684 37.6475 12.2161 37.6475 11.5292 37.4035C11.1396 37.2652 10.7764 37.0479 10.4967 36.7376C10.1581 36.3618 9.96976 35.8888 9.87288 35.3951C9.74788 34.7585 9.72135 34.099 9.7459 33.4519C9.78003 32.687 9.90559 31.9114 10.2172 31.2091C10.1147 31.1129 10.0287 30.9968 9.96738 30.8712Z" fill="black"/>
<path d="M15.5178 30.2917L15.4623 30.2086L15.4623 30.2086L15.5178 30.2917ZM14.8898 30.9773L14.9003 31.0768L14.6948 31.0984L14.8054 30.9238L14.8898 30.9773ZM16.9962 30.7211L17.0504 30.6371L17.2767 30.7832L17.0099 30.8202L16.9962 30.7211ZM16.7172 30.5493L16.7667 30.4624L16.7672 30.4627L16.7172 30.5493ZM27.2051 32.3926L27.2418 32.4855L27.2418 32.4856L27.2051 32.3926ZM27.4341 32.0292L27.5255 32.0696L27.5255 32.0696L27.4341 32.0292ZM27.8849 30.9489L27.9125 30.8528L28.0202 30.8838L27.9772 30.9872L27.8849 30.9489ZM26.1765 30.5168L26.1912 30.4178L26.1912 30.4178L26.1765 30.5168ZM24.2638 30.4215L24.2671 30.5214L24.2671 30.5214L24.2638 30.4215ZM20.4185 30.9065L20.4008 30.8081L20.4008 30.8081L20.4185 30.9065ZM16.6004 31.5273L16.6138 31.6264L16.6138 31.6264L16.6004 31.5273ZM12.832 31.9283L12.8234 31.8287L12.8234 31.8287L12.832 31.9283ZM11.9827 31.8438L11.9124 31.9149L11.9124 31.9149L11.9827 31.8438ZM12.0168 31.2805L12.0709 31.3646L12.0709 31.3646L12.0168 31.2805ZM12.4528 31.1833L12.4657 31.2824L12.4657 31.2824L12.4528 31.1833ZM12.9786 31.1337L12.9719 31.0339L12.972 31.0339L12.9786 31.1337ZM13.1934 31.1201L13.229 31.0267L13.1996 31.2199L13.1934 31.1201ZM11.3948 30.815L11.2961 30.7989L11.3091 30.7194L11.3895 30.7151L11.3948 30.815ZM11.1139 31.4323L11.2038 31.4761L11.2038 31.4761L11.1139 31.4323ZM10.7662 32.3977L10.6687 32.3753L10.6687 32.3753L10.7662 32.3977ZM10.6426 34.5623L10.5429 34.5693L10.5428 34.5686L10.6426 34.5623ZM11.2426 36.2565L11.31 36.1826L11.31 36.1826L11.2426 36.2565ZM12.5589 36.7364L12.567 36.6367L12.567 36.6367L12.5589 36.7364ZM14.1778 36.6605L14.1913 36.7596L14.1913 36.7596L14.1778 36.6605ZM16.4128 36.2417L16.3888 36.1447L16.3888 36.1447L16.4128 36.2417ZM20.4543 34.5746L20.4027 34.489L20.4027 34.489L20.4543 34.5746ZM22.274 33.4345L22.3236 33.5213L22.3236 33.5213L22.274 33.4345ZM24.2888 32.6171L24.3127 32.7142L24.3127 32.7142L24.2888 32.6171ZM26.7224 32.3868L26.7165 32.4866L26.7165 32.4866L26.7224 32.3868ZM28.1228 32.0301L28.2184 32.0593L28.2184 32.0593L28.1228 32.0301ZM27.7983 32.8437L27.7192 32.7825L27.7192 32.7824L27.7983 32.8437ZM27.082 33.1712L27.0893 33.271L27.0893 33.271L27.082 33.1712ZM26.0828 33.1924L26.0865 33.2924L26.0865 33.2924L26.0828 33.1924ZM24.0778 33.535L24.0478 33.4396L24.0478 33.4396L24.0778 33.535ZM22.3644 34.3551L22.3123 34.2697L22.3123 34.2697L22.3644 34.3551ZM20.873 35.2945L20.831 35.3852L20.6607 35.3064L20.8211 35.209L20.873 35.2945ZM21.2716 35.4816L21.2314 35.5732L21.2314 35.5732L21.2716 35.4816ZM22.1122 35.8369L22.0744 35.9294L22.0744 35.9294L22.1122 35.8369ZM23.7887 36.4904L23.7544 36.5844L23.7544 36.5844L23.7887 36.4904ZM27.2481 37.5755L27.2736 37.4788L27.2736 37.4788L27.2481 37.5755ZM28.9498 37.919L28.9456 38.0189L28.9456 38.0189L28.9498 37.919ZM30.353 37.4856L30.4127 37.5658L30.4127 37.5658L30.353 37.4856ZM32.4476 35.0116L32.5331 35.0635L32.5331 35.0635L32.4476 35.0116ZM33.2991 33.314L33.2064 33.2766L33.2064 33.2766L33.2991 33.314ZM33.6254 32.4095L33.7207 32.4399L33.7206 32.44L33.6254 32.4095ZM33.756 31.977L33.6598 31.9497L33.6598 31.9497L33.756 31.977ZM33.8087 31.7855L33.8381 31.6899L33.9303 31.7183L33.9052 31.8114L33.8087 31.7855ZM31.1321 31.1346L31.1173 31.2335L31.1173 31.2335L31.1321 31.1346ZM29.6634 31.0307L29.6645 31.1307L29.6645 31.1307L29.6634 31.0307ZM28.9337 31.0721L28.9441 31.1716L28.9441 31.1716L28.9337 31.0721ZM28.5439 31.1252L28.5605 31.2238L28.5604 31.2238L28.5439 31.1252ZM28.3803 31.1572L28.2843 31.1295L28.3016 31.0696L28.3629 31.0587L28.3803 31.1572ZM9.96738 30.8712L10.0572 30.8273L10.0572 30.8273L9.96738 30.8712ZM9.88312 30.574L9.78439 30.5899L9.78439 30.5899L9.88312 30.574ZM9.86592 30.2763L9.96201 30.304L9.96201 30.304L9.86592 30.2763ZM10.0572 29.9553L10.1406 30.0104L10.1406 30.0105L10.0572 29.9553ZM10.2751 29.6248L10.1915 29.5698L10.1916 29.5698L10.2751 29.6248ZM10.7096 28.9628L10.6259 28.9081L10.6259 28.9081L10.7096 28.9628ZM12.4737 26.2529L12.3898 26.1985L12.3898 26.1985L12.4737 26.2529ZM14.0443 23.8504L14.1271 23.9065L14.1271 23.9066L14.0443 23.8504ZM15.6327 21.9821L15.5685 21.9054L15.5685 21.9054L15.6327 21.9821ZM18.3624 20.7587L18.4348 20.8278L18.4147 20.8488L18.3864 20.8558L18.3624 20.7587ZM18.7687 20.5962L18.8441 20.662L18.8109 20.7L18.7606 20.6959L18.7687 20.5962ZM19.2381 19.8551L19.141 19.8311L19.141 19.831L19.2381 19.8551ZM19.4104 19.186L19.4627 19.2713L19.4627 19.2713L19.4104 19.186ZM19.7233 19.38L19.8191 19.3511L19.7233 19.38ZM19.2755 21.1642L19.1793 21.1918L19.1652 21.1423L19.1972 21.1021L19.2755 21.1642ZM20.1138 23.1749L20.0374 23.2394L20.0374 23.2394L20.1138 23.1749ZM21.8676 23.8877L21.8692 23.7877L21.8692 23.7877L21.8676 23.8877ZM25.4243 22.587L25.3594 22.5109L25.3594 22.5109L25.4243 22.587ZM26.2511 21.7452L26.3281 21.809L26.3281 21.8091L26.2511 21.7452ZM26.8091 20.9031L26.9091 20.9031L26.9091 20.9291L26.8965 20.9517L26.8091 20.9031ZM24.354 18.5959L24.4533 18.5841L24.4533 18.5842L24.354 18.5959ZM24.3684 17.9638L24.4444 18.0288L24.4444 18.0289L24.3684 17.9638ZM24.6084 17.9325L24.6615 17.8478L24.6615 17.8478L24.6084 17.9325ZM24.8266 18.3737L24.9227 18.3459L24.9227 18.3459L24.8266 18.3737ZM25.4386 19.9801L25.4759 19.8874L25.4759 19.8874L25.4386 19.9801ZM25.9822 20.0622L25.9892 19.9625L25.9892 19.9625L25.9822 20.0622ZM26.6465 20.1153L26.6348 20.2146L26.6348 20.2146L26.6465 20.1153ZM26.897 20.1523L26.898 20.0523L26.898 20.0523L26.897 20.1523ZM27.0537 20.1092L27.0873 20.2033L27.0872 20.2034L27.0537 20.1092ZM27.57 20.1178L27.5566 20.2169L27.5566 20.2169L27.57 20.1178ZM32.0454 21.6754L31.9907 21.7591L31.9907 21.7591L32.0454 21.6754ZM34.5775 24.8186L34.6696 24.7797L34.6696 24.7797L34.5775 24.8186ZM35.7144 28.9375L35.8127 28.9188L35.8127 28.9188L35.7144 28.9375ZM35.9481 30.3445L35.8491 30.3585L35.8491 30.3585L35.9481 30.3445ZM36.1129 31.7239L36.013 31.7281L36.013 31.7281L36.1129 31.7239ZM36.0114 32.2407L36.1043 32.2777L36.1042 32.2777L36.0114 32.2407ZM35.5917 32.5886L35.5458 32.4997L35.5458 32.4997L35.5917 32.5886ZM34.4264 33.0342L34.3386 32.9864L34.3593 32.9484L34.4011 32.9375L34.4264 33.0342ZM33.8063 34.4452L33.7169 34.4899L33.6982 34.4525L33.7117 34.4129L33.8063 34.4452ZM33.8813 34.8739L33.9808 34.864L33.9808 34.8641L33.8813 34.8739ZM33.926 35.7749L33.826 35.7758L33.826 35.7758L33.926 35.7749ZM33.8673 37.5816L33.7674 37.5769L33.7674 37.5769L33.8673 37.5816ZM33.7286 40.8944L33.8284 40.8997L33.8284 40.8997L33.7286 40.8944ZM33.6136 41.6453L33.5274 41.5946L33.5274 41.5946L33.6136 41.6453ZM32.7695 41.6938L32.7482 41.596L32.8077 41.5831L32.8465 41.63L32.7695 41.6938ZM13.8602 41.9147L13.846 42.0137L13.8602 41.9147ZM13.3787 41.7921L13.3078 41.8627L13.3078 41.8626L13.3787 41.7921ZM13.1707 41.3907L13.2688 41.3711L13.2688 41.3711L13.1707 41.3907ZM13.2951 40.9012L13.2132 40.8439L13.2132 40.8439L13.2951 40.9012ZM13.462 40.317L13.3643 40.2956L13.3643 40.2956L13.462 40.317ZM13.6474 37.7821L13.7452 37.8026L13.7452 37.8027L13.6474 37.7821ZM13.6905 37.5784L13.6809 37.4789L13.8193 37.4656L13.7879 37.601L13.6905 37.5784ZM11.5292 37.4035L11.4957 37.4978L11.4957 37.4978L11.5292 37.4035ZM10.4967 36.7376L10.4224 36.8045L10.4224 36.8045L10.4967 36.7376ZM9.87288 35.3951L9.97101 35.3758L9.97101 35.3759L9.87288 35.3951ZM9.7459 33.4519L9.64597 33.4481L9.646 33.4474L9.7459 33.4519ZM10.2172 31.2091L10.2857 31.1362L10.3375 31.1848L10.3087 31.2497L10.2172 31.2091ZM15.5734 30.3749C15.3399 30.5309 15.1389 30.7709 14.9743 31.0308L14.8054 30.9238C14.9778 30.6516 15.1966 30.3861 15.4623 30.2086L15.5734 30.3749ZM14.8794 30.8779C15.5818 30.804 16.2829 30.7189 16.9825 30.6221L17.0099 30.8202C16.3081 30.9174 15.6048 31.0027 14.9003 31.0768L14.8794 30.8779ZM16.942 30.8051C16.851 30.7464 16.7599 30.6894 16.6672 30.6359L16.7672 30.4627C16.8639 30.5185 16.958 30.5774 17.0504 30.6371L16.942 30.8051ZM16.6677 30.6362C16.4886 30.5342 16.297 30.4127 16.1 30.3446C15.9062 30.2777 15.7295 30.2706 15.5734 30.3749L15.4623 30.2086C15.6919 30.0552 15.9421 30.0785 16.1653 30.1556C16.3851 30.2315 16.6003 30.3676 16.7667 30.4624L16.6677 30.6362ZM27.1683 32.2996C27.1963 32.2885 27.2269 32.2557 27.2595 32.19C27.2748 32.1591 27.2884 32.1256 27.302 32.0906C27.3149 32.0574 27.3288 32.02 27.3426 31.9888L27.5255 32.0696C27.5142 32.0953 27.503 32.1254 27.4884 32.163C27.4745 32.1989 27.4582 32.2395 27.4386 32.2789C27.4015 32.3536 27.3426 32.4457 27.2418 32.4855L27.1683 32.2996ZM27.3426 31.9888C27.4995 31.6332 27.6421 31.273 27.7925 30.9106L27.9772 30.9872C27.8285 31.3456 27.6836 31.7113 27.5255 32.0696L27.3426 31.9888ZM27.8572 31.045C27.2845 30.8801 26.7416 30.7016 26.1619 30.6157L26.1912 30.4178C26.788 30.5063 27.3495 30.6907 27.9125 30.8528L27.8572 31.045ZM26.1619 30.6157C25.5367 30.5231 24.901 30.5005 24.2671 30.5214L24.2605 30.3215C24.9033 30.3004 25.5514 30.3231 26.1912 30.4178L26.1619 30.6157ZM24.2671 30.5214C22.9821 30.5638 21.7074 30.776 20.4362 31.0049L20.4008 30.8081C21.6721 30.5792 22.9595 30.3644 24.2605 30.3215L24.2671 30.5214ZM20.4362 31.0049C19.1662 31.2337 17.8947 31.4537 16.6138 31.6264L16.587 31.4282C17.8634 31.2561 19.1313 31.0367 20.4008 30.8081L20.4362 31.0049ZM16.6138 31.6264C15.3588 31.7956 14.1003 31.9194 12.8405 32.028L12.8234 31.8287C14.0817 31.7202 15.3366 31.5968 16.587 31.4282L16.6138 31.6264ZM12.8406 32.028C12.7306 32.0375 12.5516 32.0664 12.3897 32.0669C12.2271 32.0675 12.0405 32.0416 11.9124 31.9149L12.053 31.7727C12.1217 31.8405 12.2374 31.8675 12.389 31.8669C12.5415 31.8664 12.6887 31.8403 12.8234 31.8287L12.8406 32.028ZM11.9124 31.9149C11.7221 31.7267 11.7018 31.364 11.9628 31.1964L12.0709 31.3646C11.9421 31.4474 11.9319 31.6529 12.0531 31.7727L11.9124 31.9149ZM11.9628 31.1964C12.0407 31.1462 12.1312 31.1237 12.2125 31.1106C12.2876 31.0985 12.3833 31.0915 12.44 31.0841L12.4657 31.2824C12.3837 31.2931 12.322 31.2956 12.2442 31.3081C12.1726 31.3196 12.1144 31.3367 12.0709 31.3646L11.9628 31.1964ZM12.4399 31.0841C12.6174 31.061 12.795 31.0458 12.9719 31.0339L12.9853 31.2335C12.8107 31.2452 12.6376 31.2601 12.4657 31.2824L12.4399 31.0841ZM12.972 31.0339C13.0439 31.0291 13.1157 31.0247 13.1873 31.0203L13.1996 31.2199C13.1279 31.2243 13.0565 31.2287 12.9853 31.2335L12.972 31.0339ZM13.1578 31.2136C12.5933 30.9985 12.0069 30.8824 11.4002 30.9148L11.3895 30.7151C12.0293 30.681 12.6437 30.8037 13.229 31.0267L13.1578 31.2136ZM11.4935 30.8311C11.4733 30.9556 11.4185 31.0769 11.3623 31.1842C11.334 31.2383 11.304 31.2912 11.2767 31.3399C11.249 31.3894 11.2241 31.4344 11.2038 31.4761L11.024 31.3885C11.0471 31.341 11.0747 31.2913 11.1023 31.2421C11.1303 31.1921 11.1585 31.1424 11.1851 31.0915C11.2389 30.9888 11.2812 30.8907 11.2961 30.7989L11.4935 30.8311ZM11.2038 31.4761C11.0548 31.7819 10.9393 32.09 10.8636 32.42L10.6687 32.3753C10.7483 32.028 10.8695 31.7056 11.024 31.3885L11.2038 31.4761ZM10.8636 32.42C10.7044 33.1144 10.6968 33.8381 10.7424 34.5559L10.5428 34.5686C10.4967 33.8424 10.5033 33.0968 10.6687 32.3753L10.8636 32.42ZM10.7424 34.5553C10.7847 35.1603 10.8755 35.7863 11.31 36.1826L11.1752 36.3304C10.6749 35.8741 10.5848 35.1683 10.5429 34.5693L10.7424 34.5553ZM11.31 36.1826C11.6393 36.483 12.1114 36.5998 12.567 36.6367L12.5508 36.8361C12.0801 36.7979 11.5537 36.6756 11.1752 36.3304L11.31 36.1826ZM12.567 36.6367C13.0948 36.6796 13.6332 36.634 14.1642 36.5615L14.1913 36.7596C13.6547 36.8329 13.0998 36.8806 12.5508 36.8361L12.567 36.6367ZM14.1642 36.5615C14.9102 36.4596 15.6589 36.3249 16.3888 36.1447L16.4367 36.3388C15.6986 36.5211 14.9428 36.657 14.1913 36.7596L14.1642 36.5615ZM16.3888 36.1447C17.8009 35.7959 19.1542 35.2411 20.4027 34.489L20.5059 34.6603C19.2399 35.4229 17.8679 35.9854 16.4367 36.3388L16.3888 36.1447ZM20.4027 34.489C20.7075 34.3053 21.0054 34.1103 21.3067 33.9153C21.6073 33.7208 21.911 33.5268 22.2244 33.3477L22.3236 33.5213C22.0154 33.6975 21.7158 33.8889 21.4153 34.0833C21.1155 34.2772 20.8142 34.4746 20.5059 34.6603L20.4027 34.489ZM22.2243 33.3477C22.8648 32.9815 23.5473 32.6969 24.2649 32.52L24.3127 32.7142C23.615 32.8862 22.9497 33.1633 22.3236 33.5213L22.2243 33.3477ZM24.2649 32.52C25.0659 32.3226 25.9038 32.2382 26.7283 32.287L26.7165 32.4866C25.9132 32.4391 25.0955 32.5213 24.3127 32.7142L24.2649 32.52ZM26.7283 32.287C26.7674 32.2893 26.8099 32.2945 26.8505 32.2996C26.8923 32.3049 26.9331 32.3101 26.9735 32.3135C27.057 32.3205 27.1225 32.3177 27.1683 32.2996L27.2418 32.4856C27.1503 32.5218 27.045 32.5202 26.9568 32.5128C26.9114 32.509 26.8661 32.5032 26.8256 32.4981C26.7839 32.4928 26.748 32.4885 26.7165 32.4866L26.7283 32.287ZM28.2184 32.0593C28.179 32.1884 28.1394 32.3439 28.0904 32.4859C28.0403 32.6312 27.9757 32.778 27.8773 32.9049L27.7192 32.7824C27.7985 32.6802 27.8545 32.5566 27.9014 32.4206C27.9494 32.2814 27.9832 32.1447 28.0271 32.001L28.2184 32.0593ZM27.8773 32.9049C27.6762 33.1646 27.3766 33.2498 27.0893 33.271L27.0746 33.0715C27.3373 33.0522 27.5685 32.9771 27.7192 32.7825L27.8773 32.9049ZM27.0893 33.271C26.9198 33.2834 26.7502 33.2856 26.5831 33.2863C26.415 33.287 26.2505 33.2862 26.0865 33.2924L26.079 33.0925C26.2473 33.0862 26.4166 33.087 26.5822 33.0863C26.7488 33.0856 26.9126 33.0834 27.0747 33.0715L27.0893 33.271ZM26.0865 33.2924C25.4136 33.3176 24.7503 33.428 24.1078 33.6303L24.0478 33.4396C24.7081 33.2316 25.3891 33.1184 26.079 33.0925L26.0865 33.2924ZM24.1078 33.6303C23.5119 33.818 22.9562 34.1115 22.4164 34.4405L22.3123 34.2697C22.8581 33.9371 23.4296 33.6342 24.0478 33.4396L24.1078 33.6303ZM22.4164 34.4405C22.1665 34.5928 21.9202 34.7508 21.6727 34.9094C21.4255 35.0678 21.1771 35.2268 20.9249 35.38L20.8211 35.209C21.071 35.0573 21.3173 34.8995 21.5648 34.741C21.8119 34.5826 22.0602 34.4234 22.3123 34.2697L22.4164 34.4405ZM20.915 35.2038C21.054 35.2681 21.1792 35.3319 21.3118 35.3901L21.2314 35.5732C21.0983 35.5148 20.9593 35.4447 20.831 35.3852L20.915 35.2038ZM21.3118 35.3901C21.5895 35.5119 21.8691 35.6295 22.1501 35.7443L22.0744 35.9294C21.7922 35.8142 21.511 35.6959 21.2314 35.5732L21.3118 35.3901ZM22.15 35.7443C22.7048 35.9708 23.2612 36.1916 23.823 36.3965L23.7544 36.5844C23.1893 36.3782 22.6303 36.1564 22.0744 35.9294L22.15 35.7443ZM23.823 36.3965C24.9561 36.8099 26.1079 37.1711 27.2736 37.4788L27.2226 37.6722C26.051 37.363 24.8933 36.9999 23.7544 36.5844L23.823 36.3965ZM27.2736 37.4788C27.8367 37.6275 28.3887 37.7951 28.954 37.819L28.9456 38.0189C28.3528 37.9938 27.7742 37.8178 27.2226 37.6722L27.2736 37.4788ZM28.954 37.819C29.4445 37.8397 29.8975 37.7001 30.2932 37.4054L30.4127 37.5658C29.9802 37.8879 29.482 38.0415 28.9456 38.0189L28.954 37.819ZM30.2932 37.4054C31.1369 36.777 31.8122 35.8665 32.3621 34.9598L32.5331 35.0635C31.9782 35.9784 31.2869 36.9146 30.4127 37.5658L30.2932 37.4054ZM32.3621 34.9598C32.6876 34.4231 32.9716 33.8594 33.2064 33.2766L33.3919 33.3514C33.1529 33.9444 32.8641 34.5179 32.5331 35.0635L32.3621 34.9598ZM33.2064 33.2766C33.3253 32.9817 33.4331 32.6821 33.5302 32.379L33.7206 32.44C33.6221 32.7476 33.5126 33.0518 33.3919 33.3514L33.2064 33.2766ZM33.5302 32.379C33.5757 32.2367 33.6189 32.0935 33.6598 31.9497L33.8522 32.0044C33.8107 32.1503 33.7669 32.2955 33.7207 32.4399L33.5302 32.379ZM33.6598 31.9497C33.6777 31.8867 33.6949 31.8233 33.7121 31.7595L33.9052 31.8114C33.888 31.8755 33.8705 31.94 33.8522 32.0044L33.6598 31.9497ZM33.7792 31.881C32.9024 31.6107 32.0194 31.368 31.1173 31.2335L31.1468 31.0357C32.0639 31.1725 32.9583 31.4187 33.8381 31.6899L33.7792 31.881ZM31.1173 31.2335C30.6365 31.1617 30.1497 31.1255 29.6645 31.1307L29.6623 30.9308C30.1589 30.9254 30.6563 30.9625 31.1468 31.0357L31.1173 31.2335ZM29.6645 31.1307C29.4237 31.1333 29.1832 31.1465 28.9441 31.1716L28.9233 30.9726C29.169 30.9469 29.4157 30.9334 29.6623 30.9308L29.6645 31.1307ZM28.9441 31.1716C28.8157 31.185 28.6878 31.2023 28.5605 31.2238L28.5273 31.0266C28.6588 31.0044 28.7908 30.9865 28.9233 30.9726L28.9441 31.1716ZM28.5604 31.2238C28.5358 31.2279 28.5105 31.2331 28.483 31.2388C28.4562 31.2444 28.4271 31.2505 28.3978 31.2557L28.3629 31.0587C28.3887 31.0542 28.4147 31.0487 28.4424 31.043C28.4696 31.0373 28.4985 31.0314 28.5273 31.0266L28.5604 31.2238ZM28.4764 31.185C28.3922 31.4765 28.3071 31.7684 28.2184 32.0593L28.0271 32.001C28.1154 31.7115 28.2001 31.4208 28.2843 31.1295L28.4764 31.185ZM9.87756 30.9152C9.82352 30.8047 9.80174 30.6976 9.78439 30.5899L9.98184 30.5581C9.99843 30.661 10.0166 30.7442 10.0572 30.8273L9.87756 30.9152ZM9.78439 30.5899C9.78149 30.5719 9.77749 30.5526 9.77257 30.5273C9.7679 30.5032 9.76282 30.4757 9.75917 30.4466C9.75194 30.3889 9.74946 30.3192 9.76983 30.2486L9.96201 30.304C9.95231 30.3376 9.95196 30.3766 9.95761 30.4217C9.9604 30.4439 9.96444 30.4662 9.96891 30.4892C9.97313 30.5109 9.97827 30.5359 9.98184 30.5581L9.78439 30.5899ZM9.76983 30.2486C9.79089 30.1755 9.82887 30.1101 9.86621 30.054C9.88504 30.0257 9.90477 29.9982 9.92298 29.9728C9.94158 29.9469 9.95851 29.9232 9.97374 29.9002L10.1406 30.0105C10.1229 30.0372 10.1037 30.064 10.0855 30.0894C10.0669 30.1152 10.0493 30.1399 10.0327 30.1647C9.99933 30.215 9.97461 30.2602 9.96201 30.304L9.76983 30.2486ZM9.97372 29.9002C10.0464 29.7901 10.119 29.68 10.1915 29.5698L10.3586 29.6798C10.286 29.7901 10.2134 29.9003 10.1406 30.0104L9.97372 29.9002ZM10.1916 29.5698C10.3366 29.3494 10.4814 29.1288 10.6259 28.9081L10.7933 29.0176C10.6486 29.2385 10.5038 29.4592 10.3586 29.6798L10.1916 29.5698ZM10.6259 28.9081C11.2162 28.0065 11.8024 27.1024 12.3898 26.1985L12.5575 26.3074C11.9703 27.2111 11.3838 28.1157 10.7933 29.0176L10.6259 28.9081ZM12.3898 26.1985C12.9101 25.3977 13.4238 24.5866 13.9616 23.7942L14.1271 23.9066C13.5908 24.6967 13.0796 25.5041 12.5575 26.3074L12.3898 26.1985ZM13.9616 23.7942C14.422 23.1158 14.9289 22.4409 15.5685 21.9054L15.6969 22.0588C15.0793 22.5758 14.5851 23.2317 14.1271 23.9065L13.9616 23.7942ZM15.5685 21.9054C16.3815 21.2249 17.3464 20.9071 18.3384 20.6617L18.3864 20.8558C17.4013 21.0995 16.4735 21.4086 15.6969 22.0588L15.5685 21.9054ZM18.29 20.6897C18.4164 20.5572 18.5893 20.4813 18.7768 20.4966L18.7606 20.6959C18.6399 20.6861 18.5243 20.7339 18.4348 20.8278L18.29 20.6897ZM18.6934 20.5305C18.9158 20.2756 19.0695 20.1202 19.141 19.8311L19.3351 19.8791C19.2497 20.2246 19.0572 20.4178 18.8441 20.662L18.6934 20.5305ZM19.141 19.831C19.1484 19.8012 19.1541 19.7535 19.1608 19.6888C19.1671 19.6273 19.174 19.554 19.1844 19.4828C19.1948 19.4119 19.2094 19.3375 19.233 19.2729C19.2556 19.211 19.2923 19.1412 19.3581 19.1008L19.4627 19.2713C19.4552 19.2759 19.4385 19.2932 19.4209 19.3414C19.4043 19.3869 19.392 19.4456 19.3823 19.5118C19.3727 19.5776 19.3663 19.6452 19.3597 19.7093C19.3534 19.7702 19.3466 19.8329 19.3351 19.8791L19.141 19.831ZM19.3581 19.1008C19.4129 19.0672 19.47 19.0476 19.5281 19.0489C19.5877 19.0502 19.638 19.073 19.678 19.1062C19.7524 19.168 19.794 19.2679 19.8191 19.3511L19.6276 19.4088C19.6047 19.3327 19.5768 19.2822 19.5503 19.2601C19.5398 19.2514 19.5318 19.249 19.5238 19.2488C19.5145 19.2486 19.4949 19.2515 19.4627 19.2713L19.3581 19.1008ZM19.8191 19.3511C19.9915 19.9237 19.7925 20.6739 19.3538 21.2264L19.1972 21.1021C19.6067 20.5863 19.7763 19.9028 19.6276 19.4088L19.8191 19.3511ZM19.3716 21.1367C19.4614 21.4503 19.5641 21.8236 19.6969 22.1813C19.83 22.54 19.9901 22.8737 20.1901 23.1103L20.0374 23.2394C19.8148 22.9761 19.645 22.6165 19.5094 22.2509C19.3733 21.8843 19.2682 21.5022 19.1793 21.1918L19.3716 21.1367ZM20.1901 23.1103C20.6165 23.6146 21.2085 23.777 21.8692 23.7877L21.866 23.9877C21.176 23.9765 20.5162 23.8057 20.0374 23.2394L20.1901 23.1103ZM21.8692 23.7877C23.1316 23.8082 24.3948 23.3339 25.3594 22.5109L25.4892 22.6631C24.4893 23.5162 23.1793 24.0091 21.866 23.9877L21.8692 23.7877ZM25.3594 22.5109C25.6534 22.2602 25.9267 21.9798 26.1741 21.6814L26.3281 21.8091C26.0738 22.1157 25.7925 22.4044 25.4892 22.6631L25.3594 22.5109ZM26.1741 21.6814C26.3568 21.461 26.576 21.1166 26.7217 20.8545L26.8965 20.9517C26.7477 21.2193 26.5217 21.5755 26.3281 21.809L26.1741 21.6814ZM26.7091 20.9031C26.7091 20.8864 26.712 20.8594 26.7121 20.8574C26.7127 20.8486 26.7117 20.85 26.7131 20.8544C26.7181 20.8708 26.7283 20.8615 26.6782 20.8411C26.6281 20.8206 26.5379 20.7975 26.3785 20.7743C26.2208 20.7514 26.0009 20.7292 25.6953 20.7084L25.7088 20.5089C26.0169 20.5298 26.2424 20.5524 26.4073 20.5764C26.5707 20.6001 26.6805 20.626 26.7537 20.6559C26.8269 20.6857 26.8837 20.728 26.9044 20.7963C26.9137 20.8266 26.9128 20.8539 26.9116 20.8712C26.91 20.8951 26.9091 20.894 26.9091 20.9031L26.7091 20.9031ZM25.6953 20.7084C25.0243 20.6629 24.6706 20.1727 24.4847 19.6939C24.2988 19.2152 24.2676 18.7173 24.2547 18.6076L24.4533 18.5842C24.4676 18.7056 24.4967 19.1724 24.6711 19.6215C24.8454 20.0704 25.1522 20.4711 25.7088 20.5089L25.6953 20.7084ZM24.2547 18.6076C24.2496 18.5644 24.2403 18.515 24.23 18.4569C24.22 18.4006 24.2095 18.338 24.2041 18.2755C24.1938 18.1558 24.1989 18.0081 24.2924 17.8988L24.4444 18.0289C24.4069 18.0726 24.3938 18.1471 24.4034 18.2582C24.408 18.3112 24.4171 18.3662 24.4269 18.4221C24.4365 18.4761 24.4473 18.5335 24.4533 18.5841L24.2547 18.6076ZM24.2924 17.8989C24.3402 17.8429 24.4081 17.8154 24.4711 17.808C24.534 17.8005 24.6038 17.8116 24.6615 17.8478L24.5553 18.0173C24.5425 18.0093 24.5201 18.0035 24.4945 18.0066C24.4689 18.0096 24.4521 18.0198 24.4444 18.0288L24.2924 17.8989ZM24.6615 17.8478C24.7552 17.9066 24.8093 18.0051 24.8445 18.0929C24.8797 18.1809 24.9036 18.2798 24.9227 18.3459L24.7305 18.4014C24.7078 18.3228 24.689 18.2428 24.6588 18.1672C24.6285 18.0915 24.5943 18.0418 24.5552 18.0172L24.6615 17.8478ZM24.9227 18.3459C24.9386 18.4011 24.9629 18.5248 24.9937 18.6688C25.0254 18.8169 25.0656 18.9953 25.1149 19.1713C25.1645 19.3481 25.2222 19.5185 25.288 19.652C25.3209 19.7187 25.3544 19.7733 25.388 19.8141C25.4219 19.8555 25.4517 19.8776 25.4759 19.8874L25.4013 20.0729C25.3349 20.0462 25.2795 19.9972 25.2334 19.9411C25.1869 19.8844 25.1456 19.8153 25.1086 19.7404C25.0349 19.5907 24.9732 19.4066 24.9224 19.2253C24.8713 19.0432 24.8301 18.86 24.7981 18.7106C24.7653 18.5572 24.7438 18.4476 24.7305 18.4014L24.9227 18.3459ZM25.4759 19.8874C25.6268 19.948 25.7994 19.9491 25.9892 19.9625L25.9752 20.162C25.8062 20.1501 25.5897 20.1487 25.4013 20.0729L25.4759 19.8874ZM25.9892 19.9625C26.2083 19.9779 26.4344 19.9896 26.6582 20.016L26.6348 20.2146C26.4172 20.189 26.1993 20.1778 25.9752 20.162L25.9892 19.9625ZM26.6582 20.016C26.7034 20.0213 26.7516 20.0315 26.7906 20.0388C26.8325 20.0467 26.8673 20.052 26.898 20.0523L26.896 20.2523C26.8464 20.2518 26.7966 20.2435 26.7537 20.2354C26.7079 20.2268 26.671 20.2189 26.6348 20.2146L26.6582 20.016ZM26.898 20.0523C26.9082 20.0524 26.9228 20.0499 26.9449 20.0426C26.9716 20.0339 26.986 20.0271 27.0201 20.015L27.0872 20.2034C27.0708 20.2092 27.033 20.2242 27.007 20.2327C26.9766 20.2427 26.938 20.2527 26.896 20.2523L26.898 20.0523ZM27.02 20.015C27.1233 19.9781 27.2239 19.9746 27.3178 19.982C27.4066 19.989 27.5049 20.008 27.5835 20.0187L27.5566 20.2169C27.4595 20.2037 27.3849 20.188 27.302 20.1814C27.2242 20.1753 27.1545 20.1793 27.0873 20.2033L27.02 20.015ZM27.5835 20.0187C29.1459 20.2308 30.7599 20.7156 32.1001 21.5917L31.9907 21.7591C30.6824 20.9038 29.0992 20.4263 27.5566 20.2169L27.5835 20.0187ZM32.1001 21.5917C33.2869 22.3675 34.1208 23.482 34.6696 24.7797L34.4854 24.8576C33.949 23.5893 33.1383 22.5092 31.9907 21.7591L32.1001 21.5917ZM34.6696 24.7797C35.2276 26.0993 35.5465 27.5238 35.8127 28.9188L35.6162 28.9563C35.3505 27.5636 35.0347 26.1565 34.4854 24.8576L34.6696 24.7797ZM35.8127 28.9188C35.902 29.3874 35.9801 29.8581 36.0472 30.3304L35.8491 30.3585C35.7825 29.8893 35.705 29.4217 35.6162 28.9563L35.8127 28.9188ZM36.0472 30.3304C36.1111 30.781 36.1932 31.2537 36.2128 31.7197L36.013 31.7281C35.9939 31.2751 35.9144 30.8178 35.8491 30.3585L36.0472 30.3304ZM36.2128 31.7197C36.2213 31.9204 36.1735 32.104 36.1043 32.2777L35.9185 32.2037C35.9816 32.0453 36.0198 31.891 36.013 31.7281L36.2128 31.7197ZM36.1042 32.2777C36.0127 32.5072 35.7925 32.5974 35.6376 32.6774L35.5458 32.4997C35.7288 32.4052 35.8609 32.348 35.9185 32.2037L36.1042 32.2777ZM35.6376 32.6774C35.26 32.8726 34.8618 33.0239 34.4517 33.131L34.4011 32.9375C34.7973 32.834 35.1816 32.6879 35.5458 32.4997L35.6376 32.6774ZM34.5143 33.082C34.2706 33.5297 34.0657 33.9949 33.901 34.4775L33.7117 34.4129C33.8801 33.9194 34.0896 33.4439 34.3386 32.9864L34.5143 33.082ZM33.8958 34.4006C33.9344 34.4779 33.9518 34.5687 33.9618 34.6485C33.9712 34.7242 33.9759 34.8142 33.9808 34.864L33.7818 34.8837C33.7748 34.8133 33.7729 34.7508 33.7633 34.6732C33.7542 34.5997 33.74 34.5363 33.7169 34.4899L33.8958 34.4006ZM33.9808 34.8641C34.0107 35.1671 34.0234 35.4711 34.026 35.774L33.826 35.7758C33.8234 35.4772 33.8109 35.1793 33.7818 34.8837L33.9808 34.8641ZM34.026 35.774C34.0314 36.3803 33.9953 36.9863 33.9672 37.5863L33.7674 37.5769C33.7956 36.9733 33.8313 36.3749 33.826 35.7758L34.026 35.774ZM33.9672 37.5863C33.9388 38.1939 33.8439 40.606 33.8284 40.8997L33.6287 40.8892C33.6442 40.5947 33.7388 38.1901 33.7674 37.5769L33.9672 37.5863ZM33.8284 40.8997C33.8229 41.0041 33.8233 41.1538 33.8108 41.2887C33.7981 41.4265 33.7708 41.5751 33.6998 41.6959L33.5274 41.5946C33.5755 41.5127 33.5997 41.4001 33.6117 41.2703C33.6239 41.1376 33.6222 41.0133 33.6287 40.8892L33.8284 40.8997ZM33.6998 41.6959C33.5882 41.886 33.3951 41.9756 33.2043 41.9812C33.0151 41.9867 32.8189 41.9103 32.6924 41.7575L32.8465 41.63C32.9293 41.73 33.0636 41.7852 33.1984 41.7813C33.3316 41.7774 33.4559 41.7163 33.5274 41.5946L33.6998 41.6959ZM32.7907 41.7915C30.1799 42.3585 26.4278 42.5557 22.8407 42.5408C19.2527 42.5259 15.8203 42.2987 13.846 42.0137L13.8745 41.8158C15.8365 42.099 19.259 42.3259 22.8416 42.3408C26.4252 42.3557 30.1596 42.1583 32.7482 41.596L32.7907 41.7915ZM13.846 42.0137C13.7199 41.9955 13.636 41.987 13.5792 41.9824C13.5293 41.9784 13.4857 41.9767 13.4637 41.9739C13.4491 41.9721 13.4298 41.9686 13.4096 41.9588C13.3885 41.9486 13.374 41.9351 13.3643 41.9248C13.3568 41.9169 13.3464 41.9045 13.3403 41.8975C13.3324 41.8884 13.3222 41.8771 13.3078 41.8627L13.4495 41.7215C13.4677 41.7397 13.481 41.7545 13.4912 41.7662C13.5032 41.78 13.5056 41.7832 13.5094 41.7872C13.5109 41.7888 13.5061 41.7833 13.4968 41.7788C13.4886 41.7748 13.4833 41.7748 13.4888 41.7755C13.5069 41.7778 13.5273 41.7776 13.5953 41.7831C13.6565 41.788 13.7446 41.797 13.8745 41.8158L13.846 42.0137ZM13.3078 41.8626C13.1945 41.7488 13.1031 41.5622 13.0727 41.4103L13.2688 41.3711C13.2924 41.4894 13.3674 41.639 13.4495 41.7215L13.3078 41.8626ZM13.0727 41.4103C13.0294 41.1945 13.1012 41.0037 13.2132 40.8439L13.377 40.9586C13.2846 41.0906 13.2398 41.2262 13.2688 41.3711L13.0727 41.4103ZM13.2132 40.8439C13.2553 40.7837 13.2837 40.6991 13.3063 40.5981C13.3174 40.5485 13.3266 40.4976 13.3357 40.4462C13.3447 40.3955 13.3538 40.3436 13.3643 40.2956L13.5597 40.3384C13.5502 40.3816 13.5419 40.4291 13.5327 40.4812C13.5236 40.5324 13.5137 40.5874 13.5015 40.6418C13.4775 40.749 13.4423 40.8653 13.377 40.9586L13.2132 40.8439ZM13.3643 40.2956C13.3862 40.1958 13.4064 40.0035 13.4249 39.7609C13.4431 39.5207 13.4592 39.238 13.4737 38.9613C13.4882 38.6852 13.5012 38.4144 13.5132 38.2004C13.5193 38.0933 13.5252 37.9996 13.5309 37.9258C13.5365 37.8544 13.5424 37.7952 13.5495 37.7615L13.7452 37.8027C13.7413 37.8214 13.7361 37.8673 13.7303 37.9414C13.7247 38.013 13.7189 38.105 13.7129 38.2117C13.7009 38.4253 13.688 38.6942 13.6734 38.9718C13.6589 39.2487 13.6427 39.5334 13.6243 39.7761C13.606 40.0164 13.585 40.2226 13.5597 40.3384L13.3643 40.2956ZM13.5495 37.7615C13.5628 37.6984 13.5767 37.6263 13.593 37.5558L13.7879 37.601C13.7721 37.6689 13.7594 37.735 13.7452 37.8026L13.5495 37.7615ZM13.7 37.678C12.9732 37.7475 12.2033 37.7491 11.4957 37.4978L11.5626 37.3093C12.2288 37.5459 12.9637 37.5475 13.6809 37.4789L13.7 37.678ZM11.4957 37.4978C11.0939 37.3551 10.7154 37.1296 10.4224 36.8045L10.571 36.6706C10.8373 36.9661 11.1854 37.1753 11.5626 37.3093L11.4957 37.4978ZM10.4224 36.8045C10.0681 36.4113 9.87388 35.9196 9.77475 35.4144L9.97101 35.3759C10.0656 35.8581 10.2482 36.3124 10.571 36.6706L10.4224 36.8045ZM9.77476 35.4144C9.64782 34.7678 9.62123 34.1002 9.64598 33.4481L9.84583 33.4556C9.82146 34.0979 9.84795 34.7491 9.97101 35.3758L9.77476 35.4144ZM9.646 33.4474C9.68045 32.6754 9.80734 31.8862 10.1258 31.1685L10.3087 31.2497C10.0038 31.9365 9.87962 32.6986 9.84581 33.4563L9.646 33.4474ZM10.1488 31.282C10.0375 31.1776 9.94428 31.0517 9.87753 30.9151L10.0572 30.8273C10.1132 30.9419 10.1919 31.0482 10.2857 31.1362L10.1488 31.282Z" fill="#364152"/>
<path fill-rule="evenodd" clip-rule="evenodd" d="M19.9866 16.9028C20.2085 16.8113 20.4065 16.6588 20.5512 16.4639C20.6015 16.3962 20.6146 16.3246 20.604 16.2592C20.5922 16.1856 20.5491 16.119 20.4903 16.0742C20.4314 16.0294 20.3577 16.0072 20.2864 16.0185C20.2245 16.0283 20.1628 16.0626 20.114 16.1336L20.1038 16.1478C20.0178 16.2655 19.9056 16.362 19.7779 16.4242C19.6547 16.4841 19.517 16.5121 19.3745 16.4958C19.103 16.4648 18.9159 16.3165 18.7171 16.1151C18.6924 16.0897 18.6678 16.0635 18.643 16.0368C18.6273 16.0127 18.6056 15.9971 18.5815 15.989C18.5547 15.98 18.5244 15.9805 18.4967 15.9902C18.4699 15.9997 18.446 16.0176 18.4299 16.0414C18.4147 16.064 18.4061 16.0919 18.4089 16.124C18.4271 16.3328 18.5351 16.519 18.6885 16.6653C18.8589 16.8278 19.0848 16.9402 19.2974 16.9796C19.5317 17.023 19.7704 16.9919 19.9866 16.9028V16.9028Z" fill="#231F20"/>
<path fill-rule="evenodd" clip-rule="evenodd" d="M19.1874 13.6827C18.9381 13.8358 18.5583 14.1927 18.8265 14.5722C19.1421 14.9068 19.5965 14.5231 19.8205 14.3496C20.0281 14.2152 20.2614 14.561 20.0688 14.718C18.4506 15.9284 17.7939 13.7228 19.0613 13.5028C19.2009 13.4785 19.2527 13.6354 19.1874 13.6827ZM22.0869 12.2747C22.0594 11.9294 21.5388 11.8509 21.487 12.1927C21.4406 12.4988 21.4952 12.78 21.6317 13.0557C21.7621 13.319 22.0899 13.1961 22.1147 12.9564C22.1479 12.635 22.104 12.4896 22.0869 12.2747ZM18.1242 12.1219C18.0516 12.0259 17.9468 11.9603 17.8213 11.9974C17.429 12.1132 17.5446 12.6759 17.6824 12.9498C17.7572 13.0985 17.9992 13.1362 18.1086 13.0052C18.2868 12.7917 18.3722 12.3652 18.1456 12.1548C18.1394 12.144 18.1326 12.133 18.1242 12.1219ZM21.6375 10.7636L21.5755 10.7526C21.3838 10.7191 21.1454 10.6869 21.0098 10.8426C20.9379 10.9252 20.9131 11.0787 21.0098 11.1577C21.1799 11.2967 21.3679 11.2429 21.5717 11.2546C21.7396 11.2644 21.901 11.2924 22.0628 11.3392C22.4177 11.4416 22.7069 11.6287 23.01 11.8341C23.0497 11.8611 23.0903 11.8097 23.0714 11.7721C22.8964 11.4259 22.5573 11.1414 22.2177 10.9681C22.0364 10.8755 21.838 10.7988 21.6375 10.7636ZM18.4817 10.6085L18.4343 10.6183C17.9182 10.7273 17.2476 10.9451 17.0031 11.4573C16.9938 11.5297 17.0037 11.5452 17.0117 11.5553L17.0143 11.5587C17.0209 11.5674 17.0262 11.5793 17.0573 11.5892C17.0659 11.5871 17.0746 11.5849 17.0834 11.5826C17.1954 11.5529 17.2841 11.512 17.3699 11.4696L17.4629 11.4233C17.5709 11.3699 17.6798 11.3183 17.7952 11.2803C18.0415 11.1991 18.2949 11.1419 18.5521 11.1114C18.6079 11.1048 18.6616 11.0858 18.704 11.0532C18.7442 11.0223 18.7749 10.9794 18.7889 10.9225C18.807 10.8489 18.8018 10.7931 18.7627 10.7266C18.7333 10.6767 18.6912 10.6421 18.6429 10.6223C18.5936 10.602 18.5375 10.5972 18.4817 10.6085Z" fill="black"/>
<path fill-rule="evenodd" clip-rule="evenodd" d="M15.6792 12.813C15.9939 14.9635 18.1907 15.2013 18.581 13.0664C18.5183 13.0387 18.4733 12.9841 18.4827 12.8782C18.4849 12.4129 18.342 11.9212 17.9265 11.6624C17.4972 11.3955 16.9948 11.369 16.498 11.3757C15.55 11.3529 15.5699 12.1535 15.6792 12.813M18.9248 11.8777C19.2223 11.865 19.5987 11.8756 19.8653 12.0587C19.9386 11.8594 20.1289 11.6465 20.3213 11.5327C19.6063 11.5539 18.8703 11.4828 18.15 11.4276C18.3224 11.5463 18.4828 11.7247 18.5871 11.931C18.6838 11.8789 18.8224 11.8837 18.9248 11.8777M20.2363 13.041C21.0613 15.9101 23.1207 14.6595 23.3452 14.2918C23.7501 13.6834 23.8263 12.2043 23.4736 11.8088C22.9686 11.4512 22.2538 11.5432 21.6573 11.5345C20.5614 11.5494 19.7831 11.8806 20.2363 13.041M14.7049 11.7214C14.9291 11.6918 15.1686 11.6858 15.377 11.7855C15.4412 11.51 15.6426 11.2796 15.8701 11.1782C15.8976 11.1433 15.8935 11.1246 15.9875 11.1298C16.565 10.9545 17.2112 11.0473 17.7661 11.2271C18.6425 11.3016 19.562 11.3604 20.4457 11.4632C21.2736 11.0875 23.7721 11.0325 23.9273 11.9583C24.1226 11.9288 24.4552 11.7735 24.6194 11.9842C25.8232 11.778 27.0671 12.0645 28.2761 12.1922C28.5804 12.2488 28.7372 12.859 28.3917 12.8506C28.1975 12.7974 28.3977 12.4707 28.1362 12.4461C26.9697 12.3174 25.8287 12.1348 24.6502 12.1134C24.6912 12.319 23.8708 12.3323 23.8586 12.2123C23.8569 12.2132 23.855 12.2138 23.8533 12.2146C24.056 12.9779 23.873 14.0765 23.5066 14.5498C22.9933 15.1696 21.7045 15.3474 21.1331 14.9486C20.3959 14.5806 19.629 12.733 19.8444 12.1193C19.4535 11.9941 19.067 12.0316 18.6613 12.0954C18.7542 12.3605 18.9145 13.013 18.6838 13.0696C18.7262 14.3652 17.5591 15.1736 16.4833 14.6421C15.5521 14.2005 15.2265 12.8026 15.3404 11.9541C15.2245 12.1804 14.2512 11.9341 14.7049 11.7214" fill="black"/>
</svg>
