<svg width="275" height="375" viewBox="0 0 275 375" fill="none" xmlns="http://www.w3.org/2000/svg">
<path fill-rule="evenodd" clip-rule="evenodd" d="M123.126 7.32581C104.662 7.32581 85.5637 21.7853 78.7954 31.0123C73.105 38.7699 70.0412 73.8494 70.0412 97.5564C70.0412 102.515 67.3329 111.861 68.1233 116.604C71.0194 133.983 83.6374 148.558 108.611 148.558C133.585 148.558 151.49 138.557 170.053 111.706C179.059 111.706 183.424 104.728 183.487 93.7155C183.551 82.7034 174.794 78.6969 174.794 78.6969C174.794 78.6969 177.916 35.2385 170.053 23.924C162.189 12.6096 141.59 7.32581 123.126 7.32581Z" fill="white"/>
<path fill-rule="evenodd" clip-rule="evenodd" d="M130.896 1.18088C119.238 -0.011705 107.815 0.990326 96.326 3.06371C95.4481 3.22436 94.9505 3.8062 94.7655 4.50565C89.3541 4.75534 83.9366 5.15648 78.5323 5.45544C76.5711 5.56386 75.4593 7.5216 76.3536 9.28945C76.5321 9.64065 76.7178 9.98233 76.9064 10.324L76.6695 10.2451C75.0437 9.71816 73.2876 9.45837 71.7035 10.2948C69.6873 11.3592 68.8968 13.7079 69.3423 15.8697C69.4565 16.4216 69.648 16.9506 69.8659 17.4667C69.4236 17.4371 68.9781 17.447 68.5359 17.5061C66.1815 17.8215 64.432 19.6449 64.3085 22.0727C64.1264 25.7389 66.4644 29.4582 69.2188 32.0829C68.8191 32.9144 68.6659 33.8934 68.8321 34.8856C69.1638 36.847 70.594 38.0215 72.2517 38.7876C71.5604 41.0055 71.2336 43.3243 71.4264 45.6941C71.4908 46.4852 72.1756 47.1386 72.8985 47.299C70.2041 54.7942 68.8402 62.8413 67.8595 70.6824C67.1603 76.2613 66.8156 81.8727 66.7737 87.4936C66.7532 90.0313 66.7946 92.5719 66.8999 95.1101L66.9425 96.0618C67.0725 98.8053 67.079 101.686 67.5668 104.4C65.9019 107.262 65.232 110.813 64.9491 114.019C64.5979 117.988 65.1539 122.082 66.3932 125.857C71.0694 140.122 85.182 149.123 99.3571 151.463C112.478 153.628 127.661 150.714 135.329 138.673C135.449 138.482 135.192 138.325 135.042 138.45C129.557 142.957 123.193 144.967 116.279 145.946C104.326 147.635 90.8893 144.77 81.2964 137.175C76.6918 133.528 73.3717 128.219 71.9113 122.506C71.1666 119.585 70.9097 116.539 71.2027 113.534C71.5019 110.485 72.838 107.883 73.6803 105.002C73.9632 104.029 73.664 103.125 73.0754 102.482C72.9099 100.142 72.5194 97.7833 72.3701 95.451C72.2043 92.7994 72.1031 90.1481 72.0674 87.4936C71.9991 81.9873 72.2267 76.4712 72.6852 70.9883C73.5242 60.9479 75.7517 51.1514 77.0589 41.1964C77.543 41.635 78.2368 41.8151 78.964 41.4319L79.0393 41.3903L79.436 41.1606C79.4588 41.1606 79.4848 41.1639 79.5079 41.1669C82.2228 41.4333 85.0389 41.0522 87.6404 40.2338C90.3625 39.38 92.8889 38.0658 95.146 36.3147C95.5749 38.5123 95.754 40.7332 95.757 42.9738C95.7602 44.3734 97.2268 45.0998 98.391 44.5018C103.552 41.8535 108.481 38.8017 113.161 35.3718C113.707 38.2005 114.253 41.0289 114.803 43.8608C115.014 44.9519 116.39 45.3921 117.271 44.8731C120.777 42.8128 123.804 40.1159 126.269 36.909C126.761 37.8598 127.255 38.8105 127.752 39.759L128.5 41.18C129.238 42.5763 130.226 44.1207 131.843 44.5672C133.553 45.0403 134.981 43.9203 135.556 42.3562C135.732 41.8703 135.894 41.3706 136.044 40.8679C137.501 44.2291 139.146 47.5145 141.006 50.6487C143.796 55.3497 147.146 59.5385 150.485 63.8358C151.5 65.1404 153.236 63.8949 153.376 62.6271C153.458 61.8813 153.526 61.1323 153.585 60.3862C155.531 64.3535 157.561 68.2838 159.773 72.1001L159.457 73.3541V73.3541C158.544 77.0593 157.786 80.7908 156.962 84.5157C156.696 85.7175 157.328 87.4357 158.718 87.6404C160.378 87.8848 161.949 88.742 163.65 88.1523C165.504 87.509 165.871 85.8897 166.746 84.3547C166.921 84.0489 167.124 83.768 167.343 83.5012L167.398 83.5741V83.5741C167.535 83.7552 167.86 83.558 167.779 83.3511L167.683 83.1119V83.1119C168.435 82.3053 169.336 81.6325 170.163 80.9087C172.13 80.574 174.342 80.9406 175.697 81.7478C178.783 83.5873 180.201 87.3786 180.23 90.8647C180.266 94.9451 179.014 99.5314 176.9 103.02C175.97 104.555 174.695 105.941 173.011 106.621C171.339 107.298 169.528 107.088 167.827 107.725C166.702 108.149 166.01 109.41 166.689 110.553C166.735 110.633 166.787 110.705 166.836 110.78L166.33 111.459C165.982 111.929 165.619 112.432 165.281 112.955C164.416 113.961 163.506 114.93 162.624 115.919C160.996 117.742 159.415 119.615 157.812 121.464C156.3 123.209 154.7 124.848 153.051 126.461C151.493 127.989 149.549 129.273 148.118 130.903C146.727 132.493 146.349 135.269 148.639 136.189C151.172 137.21 153.414 134.818 155.119 133.224L155.191 133.157C158.316 130.251 161.139 126.93 163.381 123.274C165.601 124.801 168.812 124.947 171.023 123.42C172.187 122.617 173.079 121.267 173.513 119.798C173.922 119.891 174.331 119.945 174.73 119.939C174.935 120.059 175.141 120.176 175.349 120.285C176.998 121.152 179.023 120.765 179.778 118.921C180.465 117.248 179.757 115.347 179.138 113.735L179.01 113.402C178.659 112.482 178.272 111.48 177.791 110.537C179.131 109.519 180.276 108.254 181.244 106.815C184.5 101.969 186.125 94.8823 185.407 89.1004C184.974 85.6114 183.352 81.9975 180.695 79.6449L180.792 79.3886V79.3886C181.537 77.4802 182.214 75.5645 182.653 73.5476C183.166 71.1887 183.417 68.7444 183.644 66.3428C184.126 61.2702 183.996 56.0827 183.355 51.0298C182.152 41.5187 179.102 32.1818 173.687 24.2674C175.222 22.4108 176.438 20.226 175.804 17.7131C175.515 16.5596 174.855 15.4659 173.86 14.8052C173.31 14.4409 172.656 14.385 172.107 14.0828L171.942 13.9908C171.7 13.8485 171.885 13.8636 172.029 13.2023C172.598 10.5605 172.126 8.00816 169.248 7.13097C166.54 6.30635 163.977 8.05744 162.374 10.1436C158.179 7.13721 152.651 5.56386 147.79 4.22672C142.261 2.71185 136.591 1.766 130.896 1.18088ZM176.207 89.7869C176.227 87.635 174.208 86.3077 172.22 86.6596C170.886 86.8942 169.773 87.6988 168.728 88.5303L168.218 88.9377C166.945 89.9472 165.484 91.0356 164.725 92.4648C163.613 94.574 165.964 97.4122 168.159 95.9338C169.665 94.9144 170.63 93.2809 171.617 91.7635L171.72 91.607C172.168 90.9269 172.562 90.2042 173.177 89.6588L173.31 89.5413C173.512 89.3672 173.729 89.2084 173.99 89.1331C174.493 88.9869 175.426 89.1917 175.648 89.7973L175.668 89.8592C175.749 90.1651 176.204 90.099 176.207 89.7869Z" fill="black"/>
<path fill-rule="evenodd" clip-rule="evenodd" d="M60.4006 205.011C63.2245 203.994 65.9463 202.819 68.4262 201.091C75.5747 195.715 80.2358 187.625 84.6401 179.96C90.844 168.812 95.2636 156.933 98.3187 144.54C99.6314 139.216 100.077 133.043 103.06 128.322C109.821 118.438 129.647 119.719 140.175 121.454C147.225 122.714 148.682 130.685 150.283 136.583C151.617 141.484 152.489 146.44 153.222 151.463C154.965 152.621 156.933 153.561 158.808 154.38C179.249 160.713 182.842 172.453 190.649 190.587C203.836 216.945 239.617 227.265 245.022 258.459C248.504 279.054 238.602 298.428 228.392 315.549C218.883 334.249 205.609 343.225 184.469 338.807C164.641 334.313 145.585 326.796 126.106 320.987C116.672 318.644 107.252 312.548 97.3278 314.673C76.8787 319.313 55.8682 321.495 34.9114 320.893C5.48753 322.095 5.49209 293.563 8.51207 271.468C10.6274 237.083 27.7938 215.004 60.4006 205.011V205.011Z" fill="white"/>
<path fill-rule="evenodd" clip-rule="evenodd" d="M58.4334 254.766C55.9747 256.409 53.9069 258.899 52.2468 261.52C59.1771 260.792 66.0954 259.952 72.9984 258.996C72.0947 258.413 71.1826 257.842 70.2496 257.303C66.8459 255.365 62.2342 252.227 58.4334 254.766ZM173.576 275.463C174.846 274.961 175.337 273.004 175.832 271.883C177.384 268.367 178.8 264.791 180.273 261.24C174.679 259.629 169.239 257.842 163.443 256.983C157.212 256.06 150.888 255.837 144.599 256.044C131.86 256.464 119.24 258.567 106.716 260.823C94.2065 263.075 81.6976 265.24 69.1007 266.938C56.759 268.602 44.3783 269.82 31.9745 270.889C29.5646 271.097 25.5463 271.973 23.6082 270.057C22.0736 268.539 22.0239 265.741 23.9441 264.507C25.1401 263.738 26.873 263.727 28.2394 263.549C29.9603 263.325 31.688 263.177 33.4193 263.061C34.1246 263.014 34.8299 262.97 35.5356 262.927C29.8719 260.769 23.9564 259.593 17.8163 259.921C17.469 262.052 15.9046 264.245 15.0484 266.002C13.5532 269.071 12.3877 272.177 11.6226 275.513C10.0233 282.487 9.95372 289.726 10.4054 296.839C10.8203 302.769 11.7117 309.33 16.3163 313.53C19.8025 316.71 24.7213 317.888 29.2846 318.258C34.5883 318.688 39.974 318.229 45.2332 317.51C52.6097 316.503 60.0206 315.17 67.252 313.384C81.258 309.926 94.6829 304.422 107.069 296.96C113.109 293.322 118.873 289.228 124.996 285.728C131.235 282.161 137.874 279.393 144.845 277.675C152.647 275.752 160.802 274.932 168.821 275.406C170.212 275.488 172.223 275.998 173.576 275.463ZM182.617 271.892C181.797 274.58 181.17 277.649 179.42 279.907C177.687 282.145 175.072 282.935 172.363 283.134C169.097 283.374 165.793 283.22 162.519 283.343C155.806 283.595 149.184 284.697 142.767 286.717C136.786 288.601 131.234 291.539 125.886 294.798C120.941 297.812 116.14 301.048 111.193 304.052C112.51 304.662 113.812 305.322 115.12 305.896C117.866 307.1 120.628 308.262 123.402 309.396C128.873 311.63 134.368 313.809 139.918 315.835C151.11 319.918 162.487 323.485 174 326.524C179.491 327.974 185.06 329.667 190.765 329.908C195.823 330.122 200.509 328.677 204.589 325.638C213.05 319.336 219.783 310.239 225.225 301.265C228.458 295.934 231.28 290.333 233.614 284.541C234.794 281.612 235.865 278.638 236.828 275.629C237.28 274.217 237.709 272.796 238.115 271.369C238.293 270.742 238.464 270.112 238.634 269.482C229.981 266.814 221.225 264.406 212.264 263.069C207.48 262.355 202.632 261.994 197.795 262.046C195.394 262.072 192.994 262.204 190.606 262.454C189.321 262.589 188.041 262.762 186.766 262.977C186.239 263.065 185.698 263.196 185.155 263.292C184.325 266.164 183.489 269.033 182.617 271.892ZM3.75217 260.475C3.28586 259.521 3.08913 258.584 2.92198 257.546C2.79451 256.755 2.45632 255.641 2.75256 254.613C3.08425 253.462 3.98794 252.433 4.63668 251.451C5.35306 250.366 6.06878 249.281 6.78354 248.195C8.21337 246.023 9.63995 243.849 11.0643 241.673C16.8808 232.79 22.6577 223.88 28.4437 214.976C33.5783 207.074 38.6265 199.102 43.9176 191.306C48.4418 184.64 53.3732 178.085 59.566 172.9C67.3961 166.345 76.7198 163.257 86.4587 160.848C87.5224 159.733 88.9431 159.123 90.4617 159.247C92.6073 156.789 94.3125 155.071 95.0855 151.945C95.4559 150.448 95.3398 146.24 96.7833 145.354C98.498 144.301 99.3935 145.694 99.8663 147.265C101.448 152.518 99.6325 159.581 95.4539 164.843C97.2145 170.99 99.5486 179.727 103.713 184.651C108.172 189.925 114.338 191.566 120.991 191.674C133.679 191.88 146.354 187.116 156.032 178.86C158.973 176.35 161.705 173.547 164.177 170.567C166.031 168.33 168.224 164.879 169.674 162.27C169.674 161.254 170.862 160.191 158.767 159.37C146.673 158.548 145.756 141.817 145.487 139.54C145.268 137.691 144.339 134.821 145.628 133.313C146.176 132.673 147.299 132.57 147.993 133.005C149.301 133.826 149.731 135.925 150.143 137.35C150.719 139.348 152.603 151.742 156.172 153.177C157.843 153.849 159.76 153.862 161.528 153.986C163.711 154.14 165.898 154.253 168.072 154.509C168.874 154.604 169.749 154.866 170.54 154.874C171.055 154.878 171.586 154.626 172.083 154.448C173.763 153.849 175.441 154.299 177.171 154.533C192.466 156.61 208.215 161.35 221.261 169.878C232.76 177.395 240.862 188.206 246.207 200.845C251.662 213.744 254.788 227.693 257.408 241.424C258.286 246.025 259.052 250.647 259.711 255.285C260.347 259.767 261.143 264.348 261.334 268.875C261.409 270.666 260.985 272.33 260.333 273.966C259.599 275.808 257.864 276.534 256.199 277.394C252.545 279.282 248.69 280.747 244.719 281.784C242.292 286.243 240.251 290.876 238.61 295.685C239.219 296.904 239.231 298.724 239.348 299.908C239.639 302.857 239.763 305.822 239.789 308.785C239.841 314.723 239.488 320.655 239.211 326.584C238.93 332.598 237.996 356.324 237.844 359.222C237.725 361.472 237.885 364.621 236.711 366.619C234.908 369.69 230.456 369.587 228.395 367.097C177.171 378.222 80.8835 374.871 42.104 369.273C37.0584 368.545 38.6427 369.353 37.3596 368.065C36.3967 367.098 35.5772 365.442 35.3109 364.111C34.9552 362.334 35.5294 360.726 36.5362 359.289C37.5947 357.777 37.7875 355.33 38.1807 353.533C39.1104 349.284 39.5724 330.627 40.0069 328.559C40.1422 327.915 40.2732 327.234 40.4313 326.553C33.3179 327.233 25.906 327.233 19.1386 324.83C15.3011 323.467 11.7221 321.326 8.96715 318.269C5.63142 314.567 3.77559 309.907 2.82118 305.043C1.58971 298.771 1.32826 292.274 1.5702 285.899C1.90644 278.363 3.14343 270.722 6.21381 263.803C5.20346 262.855 4.35668 261.712 3.75217 260.475Z" fill="black"/>
<path d="M58.4334 254.766L58.1557 254.35L58.1557 254.35L58.4334 254.766ZM52.2468 261.52L52.2991 262.017L51.2716 262.125L51.8244 261.253L52.2468 261.52ZM72.9984 258.996L73.2696 258.576L74.4011 259.307L73.067 259.491L72.9984 258.996ZM70.2496 257.303L70.497 256.869L70.4997 256.87L70.2496 257.303ZM173.576 275.463L173.76 275.928L173.76 275.928L173.576 275.463ZM175.832 271.883L176.29 272.085L176.29 272.085L175.832 271.883ZM180.273 261.24L180.412 260.76L180.95 260.915L180.735 261.432L180.273 261.24ZM163.443 256.983L163.516 256.488L163.517 256.488L163.443 256.983ZM144.599 256.044L144.616 256.544L144.616 256.544L144.599 256.044ZM106.716 260.823L106.627 260.331L106.627 260.331L106.716 260.823ZM69.1007 266.938L69.1675 267.434L69.1675 267.434L69.1007 266.938ZM31.9745 270.889L31.9315 270.391L31.9316 270.391L31.9745 270.889ZM23.6082 270.057L23.2566 270.412L23.2566 270.412L23.6082 270.057ZM23.9441 264.507L24.2145 264.927L24.2143 264.928L23.9441 264.507ZM28.2394 263.549L28.3039 264.045L28.3038 264.045L28.2394 263.549ZM33.4193 263.061L33.3859 262.562L33.386 262.562L33.4193 263.061ZM35.5356 262.927L35.7136 262.46L35.5662 263.426L35.5356 262.927ZM17.8163 259.921L17.3228 259.84L17.3876 259.443L17.7897 259.422L17.8163 259.921ZM15.0484 266.002L15.4979 266.221L15.4978 266.221L15.0484 266.002ZM11.6226 275.513L11.1352 275.401L11.1352 275.401L11.6226 275.513ZM10.4054 296.839L9.90661 296.874L9.9064 296.87L10.4054 296.839ZM16.3163 313.53L16.6532 313.161L16.6532 313.161L16.3163 313.53ZM29.2846 318.258L29.325 317.759L29.325 317.759L29.2846 318.258ZM45.2332 317.51L45.3009 318.006L45.3009 318.006L45.2332 317.51ZM67.252 313.384L67.1321 312.899L67.1321 312.899L67.252 313.384ZM107.069 296.96L106.811 296.532L106.811 296.532L107.069 296.96ZM124.996 285.728L125.244 286.162L125.244 286.162L124.996 285.728ZM144.845 277.675L144.965 278.161L144.965 278.161L144.845 277.675ZM168.821 275.406L168.791 275.905L168.791 275.905L168.821 275.406ZM182.617 271.892L183.095 272.038L183.095 272.038L182.617 271.892ZM179.42 279.907L179.025 279.601L179.025 279.601L179.42 279.907ZM172.363 283.134L172.4 283.633L172.4 283.633L172.363 283.134ZM162.519 283.343L162.538 283.843L162.538 283.843L162.519 283.343ZM142.767 286.717L142.616 286.241L142.616 286.241L142.767 286.717ZM125.886 294.798L125.626 294.371L125.626 294.371L125.886 294.798ZM111.193 304.052L110.983 304.506L110.132 304.112L110.934 303.625L111.193 304.052ZM115.12 305.896L114.92 306.354L114.92 306.354L115.12 305.896ZM123.402 309.396L123.213 309.858L123.213 309.858L123.402 309.396ZM139.918 315.835L139.747 316.304L139.747 316.304L139.918 315.835ZM174 326.524L174.127 326.041L174.127 326.041L174 326.524ZM190.765 329.908L190.744 330.408L190.744 330.408L190.765 329.908ZM204.589 325.638L204.887 326.039L204.887 326.039L204.589 325.638ZM225.225 301.265L225.653 301.525L225.653 301.525L225.225 301.265ZM233.614 284.541L233.15 284.354L233.15 284.354L233.614 284.541ZM236.828 275.629L237.304 275.782L237.304 275.782L236.828 275.629ZM238.115 271.369L237.634 271.232L237.634 271.232L238.115 271.369ZM238.634 269.482L238.781 269.004L239.242 269.146L239.116 269.612L238.634 269.482ZM212.264 263.069L212.19 263.564L212.19 263.564L212.264 263.069ZM197.795 262.046L197.8 262.546L197.8 262.546L197.795 262.046ZM190.606 262.454L190.658 262.951L190.658 262.951L190.606 262.454ZM186.766 262.977L186.849 263.47L186.849 263.47L186.766 262.977ZM185.155 263.292L184.674 263.154L184.761 262.854L185.067 262.8L185.155 263.292ZM3.75217 260.475L4.20129 260.255L4.20141 260.255L3.75217 260.475ZM2.92198 257.546L2.42835 257.626L2.42834 257.626L2.92198 257.546ZM2.75256 254.613L3.23301 254.752L3.233 254.752L2.75256 254.613ZM4.63668 251.451L5.05391 251.727L5.05382 251.727L4.63668 251.451ZM6.78354 248.195L6.36586 247.92L6.36591 247.92L6.78354 248.195ZM11.0643 241.673L10.6459 241.4L10.6459 241.4L11.0643 241.673ZM28.4437 214.976L28.0244 214.704L28.0244 214.704L28.4437 214.976ZM43.9176 191.306L44.3313 191.587L44.3313 191.587L43.9176 191.306ZM59.566 172.9L59.2451 172.517L59.2451 172.517L59.566 172.9ZM86.4587 160.848L86.8205 161.193L86.7201 161.298L86.5788 161.333L86.4587 160.848ZM90.4617 159.247L90.8384 159.576L90.6726 159.766L90.4212 159.745L90.4617 159.247ZM95.0855 151.945L94.6001 151.825L94.6001 151.825L95.0855 151.945ZM96.7833 145.354L97.0449 145.78L97.0448 145.78L96.7833 145.354ZM99.8663 147.265L100.345 147.12L99.8663 147.265ZM95.4539 164.843L94.9733 164.981L94.9025 164.733L95.0624 164.532L95.4539 164.843ZM103.713 184.651L103.331 184.974L103.331 184.974L103.713 184.651ZM120.991 191.674L120.999 191.174L120.999 191.174L120.991 191.674ZM156.032 178.86L155.707 178.479L155.707 178.479L156.032 178.86ZM164.177 170.567L164.562 170.886L164.562 170.886L164.177 170.567ZM169.674 162.27L170.174 162.27V162.4L170.111 162.513L169.674 162.27ZM145.487 139.54L145.983 139.481L145.983 139.481L145.487 139.54ZM145.628 133.313L146.009 133.638L146.008 133.638L145.628 133.313ZM147.993 133.005L148.258 132.581L148.259 132.581L147.993 133.005ZM150.143 137.35L150.623 137.212L150.623 137.212L150.143 137.35ZM156.172 153.177L156.359 152.713L156.359 152.713L156.172 153.177ZM161.528 153.986L161.563 153.487L161.563 153.487L161.528 153.986ZM168.072 154.509L168.014 155.006L168.014 155.006L168.072 154.509ZM170.54 154.874L170.545 154.374L170.545 154.374L170.54 154.874ZM172.083 154.448L172.252 154.919L172.251 154.919L172.083 154.448ZM177.171 154.533L177.103 155.029L177.103 155.029L177.171 154.533ZM221.261 169.878L220.988 170.297L220.988 170.297L221.261 169.878ZM246.207 200.845L246.668 200.65L246.668 200.65L246.207 200.845ZM257.408 241.424L257.899 241.33L257.899 241.33L257.408 241.424ZM259.711 255.285L259.216 255.355L259.216 255.355L259.711 255.285ZM261.334 268.875L260.834 268.896L260.834 268.896L261.334 268.875ZM260.333 273.966L260.798 274.152L260.798 274.152L260.333 273.966ZM256.199 277.394L255.969 276.95L255.97 276.949L256.199 277.394ZM244.719 281.784L244.279 281.545L244.383 281.355L244.592 281.3L244.719 281.784ZM238.61 295.685L238.162 295.909L238.069 295.722L238.137 295.524L238.61 295.685ZM239.348 299.908L239.846 299.859L239.846 299.859L239.348 299.908ZM239.789 308.785L239.289 308.789L239.289 308.789L239.789 308.785ZM239.211 326.584L238.711 326.561L238.711 326.561L239.211 326.584ZM237.844 359.222L238.343 359.248L238.343 359.248L237.844 359.222ZM236.711 366.619L236.28 366.366L236.28 366.366L236.711 366.619ZM228.395 367.097L228.289 366.608L228.586 366.543L228.78 366.778L228.395 367.097ZM42.104 369.273L42.0326 369.768L42.104 369.273ZM37.3596 368.065L37.0054 368.418L37.0052 368.418L37.3596 368.065ZM35.3109 364.111L35.8012 364.013L35.8012 364.013L35.3109 364.111ZM36.5362 359.289L36.1266 359.002L36.1267 359.002L36.5362 359.289ZM38.1807 353.533L37.6922 353.426L37.6922 353.426L38.1807 353.533ZM40.0069 328.559L40.4962 328.662L40.4962 328.662L40.0069 328.559ZM40.4313 326.553L40.3836 326.055L41.0753 325.989L40.9183 326.666L40.4313 326.553ZM19.1386 324.83L18.9712 325.301L18.9712 325.301L19.1386 324.83ZM8.96715 318.269L8.59572 318.603L8.59572 318.603L8.96715 318.269ZM2.82118 305.043L3.31181 304.947L3.31182 304.947L2.82118 305.043ZM1.5702 285.899L1.07055 285.88L1.0707 285.876L1.5702 285.899ZM6.21381 263.803L6.5559 263.439L6.81486 263.681L6.67083 264.006L6.21381 263.803ZM58.7112 255.182C56.333 256.77 54.3098 259.197 52.6692 261.788L51.8244 261.253C53.5039 258.601 55.6164 256.047 58.1557 254.35L58.7112 255.182ZM52.1945 261.023C59.1195 260.295 66.0324 259.456 72.9298 258.501L73.067 259.491C66.1584 260.448 59.2347 261.289 52.2991 262.017L52.1945 261.023ZM72.7272 259.416C71.8272 258.835 70.9226 258.269 69.9996 257.736L70.4997 256.87C71.4425 257.415 72.3622 257.99 73.2696 258.576L72.7272 259.416ZM70.0023 257.738C68.2686 256.751 66.3236 255.518 64.3271 254.828C62.3473 254.144 60.4278 254.035 58.7112 255.182L58.1557 254.35C60.2398 252.958 62.5266 253.148 64.6537 253.883C66.7642 254.612 68.8269 255.918 70.497 256.869L70.0023 257.738ZM173.392 274.998C173.845 274.819 174.215 274.352 174.547 273.683C174.708 273.358 174.849 273.01 174.983 272.664C175.114 272.326 175.245 271.975 175.375 271.681L176.29 272.085C176.172 272.352 176.055 272.666 175.915 273.026C175.779 273.377 175.625 273.76 175.443 274.127C175.088 274.842 174.577 275.605 173.76 275.928L173.392 274.998ZM175.375 271.681C176.924 268.172 178.334 264.609 179.812 261.049L180.735 261.432C179.266 264.972 177.844 268.562 176.29 272.085L175.375 271.681ZM180.135 261.721C174.516 260.103 169.123 258.33 163.37 257.477L163.517 256.488C169.355 257.353 174.842 259.156 180.412 260.76L180.135 261.721ZM163.37 257.477C157.175 256.56 150.882 256.337 144.616 256.544L144.583 255.544C150.894 255.336 157.249 255.56 163.516 256.488L163.37 257.477ZM144.616 256.544C131.917 256.962 119.329 259.059 106.805 261.315L106.627 260.331C119.152 258.075 131.804 255.966 144.583 255.544L144.616 256.544ZM106.805 261.315C94.2937 263.568 81.7759 265.734 69.1675 267.434L69.0339 266.443C81.6194 264.746 94.1193 262.583 106.627 260.331L106.805 261.315ZM69.1675 267.434C56.8144 269.099 44.4247 270.318 32.0174 271.388L31.9316 270.391C44.3318 269.322 56.7036 268.105 69.0339 266.443L69.1675 267.434ZM32.0175 271.388C30.8741 271.486 29.1876 271.764 27.6161 271.77C26.0405 271.775 24.3744 271.517 23.2566 270.412L23.9597 269.701C24.78 270.512 26.0921 270.775 27.6127 270.77C29.1373 270.764 30.665 270.501 31.9315 270.391L32.0175 271.388ZM23.2566 270.412C21.549 268.724 21.4232 265.532 23.6738 264.086L24.2143 264.928C22.6246 265.949 22.5982 268.355 23.9597 269.701L23.2566 270.412ZM23.6736 264.086C24.358 263.646 25.1708 263.438 25.9485 263.313C26.6954 263.192 27.5551 263.134 28.1751 263.053L28.3038 264.045C27.5574 264.142 26.8674 264.178 26.1072 264.3C25.3778 264.417 24.7262 264.598 24.2145 264.927L23.6736 264.086ZM28.175 263.053C29.9098 262.828 31.6486 262.678 33.3859 262.562L33.4527 263.56C31.7274 263.675 30.0108 263.823 28.3039 264.045L28.175 263.053ZM33.386 262.562C34.0929 262.515 34.7995 262.471 35.5049 262.428L35.5662 263.426C34.8604 263.469 34.1563 263.513 33.4525 263.56L33.386 262.562ZM35.3576 263.394C29.7459 261.257 23.9005 260.097 17.843 260.42L17.7897 259.422C24.0124 259.089 29.9978 260.282 35.7136 262.46L35.3576 263.394ZM18.3098 260.001C18.1228 261.149 17.6138 262.288 17.0661 263.334C16.7912 263.859 16.5 264.372 16.2294 264.855C15.9565 265.342 15.7048 265.797 15.4979 266.221L14.5989 265.783C14.82 265.329 15.085 264.851 15.3571 264.366C15.6314 263.877 15.9136 263.379 16.1802 262.87C16.7157 261.847 17.1625 260.824 17.3228 259.84L18.3098 260.001ZM15.4978 266.221C14.0164 269.262 12.8652 272.331 12.1099 275.625L11.1352 275.401C11.9102 272.022 13.09 268.88 14.5989 265.783L15.4978 266.221ZM12.1099 275.625C10.5262 282.531 10.454 289.715 10.9044 296.807L9.9064 296.87C9.45339 289.736 9.52043 282.443 11.1352 275.401L12.1099 275.625ZM10.9042 296.804C11.3201 302.749 12.213 309.11 16.6532 313.161L15.9793 313.899C11.2104 309.549 10.3205 302.79 9.90662 296.874L10.9042 296.804ZM16.6532 313.161C20.0165 316.229 24.7995 317.392 29.325 317.759L29.2441 318.756C24.6431 318.383 19.5885 317.192 15.9793 313.899L16.6532 313.161ZM29.325 317.759C34.5759 318.186 39.9202 317.731 45.1656 317.015L45.3009 318.006C40.0278 318.726 34.6008 319.191 29.2441 318.756L29.325 317.759ZM45.1655 317.015C52.5283 316.009 59.9213 314.68 67.1321 312.899L67.3719 313.87C60.1199 315.661 52.691 316.996 45.3009 318.006L45.1655 317.015ZM67.1321 312.899C81.0904 309.452 94.4686 303.967 106.811 296.532L107.327 297.389C94.8971 304.877 81.4256 310.399 67.3719 313.87L67.1321 312.899ZM106.811 296.532C109.822 294.718 112.765 292.791 115.73 290.872C118.691 288.956 121.673 287.051 124.748 285.294L125.244 286.162C122.195 287.905 119.234 289.797 116.273 291.712C113.315 293.625 110.356 295.564 107.327 297.389L106.811 296.532ZM124.748 285.294C131.023 281.706 137.705 278.92 144.726 277.19L144.965 278.161C138.043 279.867 131.447 282.615 125.244 286.162L124.748 285.294ZM144.726 277.19C152.573 275.256 160.779 274.429 168.85 274.907L168.791 275.905C160.826 275.434 152.721 276.249 144.965 278.161L144.726 277.19ZM168.85 274.907C169.217 274.929 169.62 274.978 170.023 275.029C170.432 275.08 170.844 275.133 171.254 275.168C172.088 275.238 172.83 275.22 173.392 274.998L173.76 275.928C172.969 276.241 172.028 276.236 171.171 276.164C170.736 276.128 170.3 276.072 169.898 276.021C169.49 275.97 169.12 275.925 168.791 275.905L168.85 274.907ZM183.095 272.038C182.696 273.345 182.32 274.832 181.84 276.224C181.354 277.633 180.738 279.023 179.815 280.214L179.025 279.601C179.852 278.534 180.425 277.26 180.895 275.898C181.37 274.519 181.717 273.127 182.139 271.746L183.095 272.038ZM179.815 280.213C177.956 282.614 175.17 283.429 172.4 283.633L172.327 282.636C174.974 282.441 177.418 281.676 179.025 279.601L179.815 280.213ZM172.4 283.633C170.748 283.754 169.091 283.775 167.446 283.782C165.796 283.789 164.164 283.782 162.538 283.843L162.5 282.843C164.148 282.782 165.804 282.789 167.442 282.782C169.084 282.775 170.712 282.754 172.327 282.636L172.4 283.633ZM162.538 283.843C155.867 284.093 149.29 285.188 142.917 287.194L142.616 286.241C149.079 284.206 155.745 283.097 162.5 282.843L162.538 283.843ZM142.917 287.194C136.992 289.06 131.479 291.975 126.146 295.225L125.626 294.371C130.989 291.103 136.58 288.142 142.616 286.241L142.917 287.194ZM126.146 295.225C123.679 296.728 121.248 298.288 118.81 299.85C116.374 301.41 113.932 302.974 111.453 304.48L110.934 303.625C113.401 302.126 115.833 300.569 118.27 299.008C120.706 297.447 123.147 295.881 125.626 294.371L126.146 295.225ZM111.403 303.599C112.747 304.221 114.014 304.864 115.321 305.438L114.92 306.354C113.609 305.779 112.273 305.103 110.983 304.506L111.403 303.599ZM115.321 305.438C118.062 306.641 120.82 307.801 123.591 308.933L123.213 309.858C120.436 308.724 117.669 307.56 114.92 306.354L115.321 305.438ZM123.591 308.933C129.06 311.166 134.548 313.343 140.09 315.365L139.747 316.304C134.188 314.276 128.687 312.094 123.213 309.858L123.591 308.933ZM140.09 315.365C151.267 319.443 162.629 323.006 174.127 326.041L173.872 327.008C162.344 323.965 150.954 320.393 139.747 316.304L140.09 315.365ZM174.127 326.041C179.647 327.498 185.15 329.17 190.786 329.408L190.744 330.408C184.97 330.164 179.334 328.45 173.872 327.008L174.127 326.041ZM190.786 329.408C195.729 329.617 200.302 328.208 204.29 325.237L204.887 326.039C200.716 329.146 195.917 330.626 190.744 330.408L190.786 329.408ZM204.29 325.237C212.675 318.992 219.368 309.959 224.797 301.006L225.653 301.525C220.198 310.518 213.426 319.68 204.887 326.039L204.29 325.237ZM224.797 301.006C228.017 295.697 230.827 290.12 233.15 284.354L234.078 284.728C231.733 290.545 228.899 296.171 225.653 301.525L224.797 301.006ZM233.15 284.354C234.326 281.437 235.392 278.474 236.352 275.477L237.304 275.782C236.337 278.802 235.263 281.787 234.078 284.728L233.15 284.354ZM236.352 275.477C236.802 274.07 237.229 272.654 237.634 271.232L238.596 271.506C238.188 272.938 237.758 274.364 237.304 275.782L236.352 275.477ZM237.634 271.232C237.811 270.608 237.982 269.982 238.151 269.352L239.116 269.612C238.947 270.242 238.775 270.875 238.596 271.506L237.634 271.232ZM238.486 269.96C229.841 267.294 221.114 264.895 212.19 263.564L212.338 262.575C221.337 263.917 230.121 266.334 238.781 269.004L238.486 269.96ZM212.19 263.564C207.43 262.853 202.609 262.494 197.8 262.546L197.789 261.547C202.655 261.494 207.529 261.857 212.338 262.575L212.19 263.564ZM197.8 262.546C195.414 262.572 193.03 262.703 190.658 262.951L190.554 261.957C192.959 261.705 195.374 261.573 197.789 261.547L197.8 262.546ZM190.658 262.951C189.383 263.085 188.113 263.257 186.849 263.47L186.683 262.484C187.968 262.267 189.259 262.092 190.554 261.957L190.658 262.951ZM186.849 263.47C186.596 263.512 186.338 263.565 186.068 263.621C185.801 263.677 185.522 263.735 185.242 263.785L185.067 262.8C185.33 262.753 185.594 262.698 185.865 262.642C186.133 262.586 186.409 262.53 186.683 262.484L186.849 263.47ZM185.635 263.431C184.805 266.303 183.968 269.176 183.095 272.038L182.139 271.747C183.009 268.891 183.845 266.025 184.674 263.154L185.635 263.431ZM3.30304 260.694C2.8032 259.673 2.5974 258.675 2.42835 257.626L3.41562 257.467C3.58086 258.492 3.76852 259.37 4.20129 260.255L3.30304 260.694ZM2.42834 257.626C2.39817 257.438 2.35597 257.235 2.30924 256.994C2.26372 256.759 2.21614 256.501 2.18227 256.231C2.11486 255.693 2.09731 255.081 2.27213 254.475L3.233 254.752C3.11157 255.173 3.11499 255.632 3.17449 256.106C3.20407 256.342 3.24643 256.574 3.29091 256.803C3.33419 257.026 3.38206 257.258 3.41562 257.467L2.42834 257.626ZM2.27212 254.475C2.4591 253.826 2.80109 253.231 3.15941 252.692C3.33936 252.421 3.52871 252.157 3.70895 251.906C3.89116 251.652 4.06355 251.412 4.21954 251.176L5.05382 251.727C4.88543 251.982 4.70159 252.238 4.52153 252.489C4.33951 252.743 4.16057 252.992 3.99204 253.246C3.65341 253.755 3.37772 254.249 3.23301 254.752L2.27212 254.475ZM4.21944 251.176C4.93569 250.091 5.65127 249.006 6.36586 247.92L7.20121 248.47C6.48629 249.556 5.77042 250.642 5.05391 251.727L4.21944 251.176ZM6.36591 247.92C7.79547 245.748 9.22182 243.575 10.6459 241.4L11.4826 241.947C10.0581 244.123 8.63126 246.297 7.20116 248.47L6.36591 247.92ZM10.6459 241.4C16.4619 232.517 22.2381 223.608 28.0244 214.704L28.8629 215.248C23.0773 224.152 17.2997 233.062 11.4826 241.947L10.6459 241.4ZM28.0244 214.704C33.1548 206.809 38.209 198.827 43.5038 191.026L44.3313 191.587C39.0439 199.377 34.0019 207.34 28.8629 215.248L28.0244 214.704ZM43.5038 191.026C48.0341 184.351 52.9971 177.747 59.2451 172.517L59.887 173.284C53.7494 178.422 48.8496 184.93 44.3313 191.587L43.5038 191.026ZM59.2451 172.517C67.166 165.886 76.5826 162.776 86.3386 160.363L86.5788 161.333C76.8569 163.739 67.6262 166.805 59.887 173.284L59.2451 172.517ZM86.0969 160.503C87.2527 159.291 88.8168 158.612 90.5022 158.749L90.4212 159.745C89.0694 159.635 87.7921 160.174 86.8205 161.193L86.0969 160.503ZM90.085 158.918C92.2537 156.433 93.862 154.81 94.6001 151.825L95.5709 152.065C94.7631 155.332 92.9608 157.144 90.8384 159.576L90.085 158.918ZM94.6001 151.825C94.6826 151.491 94.7419 150.985 94.8067 150.357C94.8698 149.744 94.9364 149.036 95.0372 148.348C95.1378 147.661 95.2761 146.966 95.4914 146.376C95.7018 145.799 96.0153 145.239 96.5217 144.928L97.0448 145.78C96.8295 145.912 96.6162 146.21 96.4308 146.718C96.2504 147.213 96.1238 147.829 96.0267 148.493C95.9298 149.154 95.8658 149.834 95.8014 150.459C95.7386 151.069 95.6735 151.65 95.5709 152.065L94.6001 151.825ZM96.5217 144.928C97.0069 144.63 97.4783 144.478 97.9326 144.488C98.3941 144.498 98.7875 144.673 99.1099 144.941C99.7269 145.453 100.103 146.318 100.345 147.12L99.3876 147.409C99.1565 146.642 98.8488 146.024 98.4711 145.71C98.2961 145.565 98.1147 145.492 97.9112 145.487C97.7006 145.483 97.417 145.552 97.0449 145.78L96.5217 144.928ZM100.345 147.12C101.986 152.57 100.097 159.8 95.8455 165.154L95.0624 164.532C99.1679 159.362 100.91 152.466 99.3876 147.409L100.345 147.12ZM95.9346 164.705C96.8171 167.787 97.8349 171.486 99.1507 175.032C100.468 178.583 102.069 181.933 104.094 184.328L103.331 184.974C101.192 182.445 99.5437 178.965 98.2132 175.379C96.8809 171.789 95.8513 168.046 94.9733 164.981L95.9346 164.705ZM104.094 184.328C108.422 189.447 114.419 191.067 120.999 191.174L120.983 192.174C114.257 192.065 107.921 190.402 103.331 184.974L104.094 184.328ZM120.999 191.174C133.56 191.378 146.118 186.661 155.707 178.479L156.356 179.24C146.59 187.572 133.798 192.382 120.983 192.174L120.999 191.174ZM155.707 178.479C158.625 175.99 161.337 173.208 163.792 170.248L164.562 170.886C162.073 173.887 159.321 176.711 156.356 179.24L155.707 178.479ZM163.792 170.248C165.619 168.044 167.795 164.622 169.237 162.028L170.111 162.513C168.653 165.136 166.443 168.616 164.562 170.886L163.792 170.248ZM169.174 162.27C169.174 162.124 169.198 161.926 169.203 161.853C169.21 161.746 169.205 161.69 169.192 161.649C169.179 161.605 169.117 161.434 168.567 161.21C168.018 160.986 167.081 160.751 165.502 160.521C163.931 160.293 161.751 160.073 158.734 159.868L158.801 158.871C161.831 159.076 164.039 159.298 165.646 159.532C167.246 159.764 168.28 160.012 168.945 160.284C169.61 160.555 170.007 160.892 170.149 161.359C170.214 161.573 170.211 161.773 170.2 161.922C170.188 162.105 170.174 162.162 170.174 162.27L169.174 162.27ZM158.734 159.868C152.4 159.438 149.03 154.826 147.226 150.182C145.423 145.538 145.121 140.708 144.99 139.598L145.983 139.481C146.121 140.649 146.412 145.323 148.159 149.82C149.904 154.315 153.04 158.479 158.801 158.871L158.734 159.868ZM144.99 139.599C144.938 139.155 144.842 138.649 144.743 138.086C144.645 137.532 144.545 136.934 144.494 136.342C144.394 135.183 144.464 133.906 145.248 132.988L146.008 133.638C145.504 134.228 145.394 135.14 145.49 136.255C145.537 136.8 145.63 137.36 145.728 137.912C145.824 138.454 145.926 139 145.983 139.481L144.99 139.599ZM145.248 132.988C145.622 132.551 146.168 132.322 146.697 132.259C147.226 132.197 147.799 132.293 148.258 132.581L147.727 133.428C147.493 133.281 147.157 133.212 146.814 133.252C146.472 133.293 146.182 133.435 146.009 133.638L145.248 132.988ZM148.259 132.581C149.049 133.077 149.534 133.929 149.868 134.765C150.203 135.602 150.426 136.53 150.623 137.212L149.662 137.489C149.448 136.745 149.25 135.911 148.94 135.137C148.63 134.361 148.245 133.753 147.727 133.428L148.259 132.581ZM150.623 137.212C150.774 137.734 151.006 138.918 151.315 140.36C151.628 141.822 152.026 143.591 152.516 145.34C153.008 147.092 153.586 148.804 154.254 150.159C154.587 150.836 154.936 151.409 155.298 151.85C155.662 152.293 156.018 152.576 156.359 152.713L155.986 153.641C155.434 153.419 154.95 153.002 154.525 152.484C154.099 151.965 153.711 151.319 153.357 150.601C152.649 149.165 152.051 147.385 151.553 145.61C151.055 143.831 150.651 142.037 150.337 140.569C150.018 139.08 149.8 137.966 149.662 137.489L150.623 137.212ZM156.359 152.713C157.936 153.348 159.743 153.359 161.563 153.487L161.493 154.485C159.777 154.364 157.751 154.351 155.986 153.641L156.359 152.713ZM161.563 153.487C163.733 153.64 165.941 153.754 168.131 154.013L168.014 155.006C165.855 154.751 163.688 154.64 161.492 154.485L161.563 153.487ZM168.131 154.013C168.554 154.063 169.002 154.158 169.402 154.233C169.818 154.31 170.197 154.37 170.545 154.374L170.535 155.374C170.092 155.369 169.638 155.294 169.218 155.215C168.783 155.134 168.392 155.05 168.014 155.006L168.131 154.013ZM170.545 154.374C170.723 154.375 170.924 154.332 171.163 154.254C171.424 154.169 171.623 154.082 171.915 153.977L172.251 154.919C172.047 154.992 171.731 155.12 171.474 155.205C171.193 155.296 170.872 155.377 170.535 155.374L170.545 154.374ZM171.915 153.978C172.845 153.646 173.762 153.61 174.647 153.68C175.508 153.748 176.419 153.927 177.238 154.038L177.103 155.029C176.192 154.905 175.399 154.742 174.569 154.676C173.763 154.613 173.001 154.652 172.252 154.919L171.915 153.978ZM177.238 154.038C192.583 156.121 208.409 160.879 221.535 169.46L220.988 170.297C208.021 161.821 192.349 157.099 177.103 155.029L177.238 154.038ZM221.535 169.46C233.132 177.041 241.291 187.937 246.668 200.65L245.747 201.04C240.432 188.474 232.389 177.75 220.988 170.297L221.535 169.46ZM246.668 200.65C252.144 213.601 255.278 227.593 257.899 241.33L256.917 241.518C254.298 227.792 251.179 213.887 245.747 201.04L246.668 200.65ZM257.899 241.33C258.778 245.939 259.546 250.569 260.206 255.215L259.216 255.355C258.558 250.725 257.793 246.111 256.917 241.518L257.899 241.33ZM260.206 255.215C260.839 259.675 261.641 264.295 261.833 268.854L260.834 268.896C260.645 264.402 259.855 259.858 259.216 255.355L260.206 255.215ZM261.833 268.854C261.913 270.74 261.465 272.477 260.798 274.152L259.869 273.781C260.506 272.184 260.906 270.593 260.834 268.896L261.833 268.854ZM260.798 274.152C259.979 276.206 258.023 277.014 256.428 277.838L255.97 276.949C257.704 276.053 259.22 275.41 259.869 273.781L260.798 274.152ZM256.429 277.838C252.741 279.744 248.851 281.221 244.845 282.268L244.592 281.3C248.529 280.272 252.349 278.821 255.969 276.95L256.429 277.838ZM245.158 282.023C242.745 286.458 240.715 291.065 239.083 295.847L238.137 295.524C239.787 290.688 241.84 286.029 244.279 281.545L245.158 282.023ZM239.057 295.462C239.4 296.149 239.564 296.977 239.66 297.748C239.753 298.498 239.792 299.318 239.846 299.859L238.851 299.957C238.787 299.314 238.762 298.631 238.667 297.871C238.575 297.132 238.428 296.44 238.162 295.909L239.057 295.462ZM239.846 299.859C240.138 302.827 240.263 305.807 240.289 308.78L239.289 308.789C239.263 305.837 239.139 302.888 238.851 299.957L239.846 299.859ZM240.289 308.78C240.341 314.736 239.987 320.688 239.71 326.608L238.711 326.561C238.989 320.623 239.341 314.709 239.289 308.789L240.289 308.78ZM239.71 326.608C239.43 332.607 238.495 356.353 238.343 359.248L237.344 359.195C237.497 356.296 238.43 332.588 238.711 326.561L239.71 326.608ZM238.343 359.248C238.286 360.324 238.293 361.737 238.171 363.061C238.047 364.399 237.786 365.776 237.142 366.872L236.28 366.366C236.81 365.464 237.055 364.267 237.175 362.969C237.296 361.656 237.283 360.37 237.344 359.195L238.343 359.248ZM237.142 366.872C236.14 368.579 234.404 369.392 232.664 369.443C230.933 369.494 229.15 368.793 228.01 367.415L228.78 366.778C229.702 367.891 231.175 368.486 232.635 368.444C234.087 368.401 235.479 367.73 236.28 366.366L237.142 366.872ZM228.501 367.585C202.834 373.16 165.911 375.103 130.581 374.956C95.2447 374.809 61.4532 372.572 42.0326 369.768L42.1754 368.779C61.5344 371.573 95.2761 373.809 130.585 373.956C165.899 374.103 202.732 372.159 228.289 366.608L228.501 367.585ZM42.0326 369.768C40.7808 369.588 39.9443 369.503 39.3744 369.457C38.8385 369.414 38.4655 369.401 38.258 369.375C38.1368 369.36 38.0057 369.334 37.8762 369.271C37.7416 369.206 37.6459 369.119 37.5699 369.039C37.5052 368.971 37.4222 368.871 37.3478 368.785C37.2641 368.689 37.1562 368.569 37.0054 368.418L37.7138 367.712C37.8837 367.883 38.007 368.019 38.1019 368.129C38.2062 368.248 38.2494 368.302 38.2954 368.351C38.3302 368.387 38.3298 368.38 38.3123 368.371C38.2998 368.365 38.3075 368.373 38.3837 368.383C38.5712 368.407 38.8284 368.41 39.4547 368.46C40.0469 368.508 40.9043 368.595 42.1754 368.779L42.0326 369.768ZM37.0052 368.418C35.9645 367.372 35.1037 365.624 34.8206 364.209L35.8012 364.013C36.0507 365.26 36.8289 366.823 37.7139 367.712L37.0052 368.418ZM34.8206 364.209C34.4294 362.255 35.0712 360.509 36.1266 359.002L36.9458 359.575C35.9877 360.944 35.4809 362.413 35.8012 364.013L34.8206 364.209ZM36.1267 359.002C36.5978 358.329 36.8938 357.419 37.12 356.409C37.2321 355.908 37.3244 355.397 37.4144 354.89C37.5037 354.388 37.5913 353.887 37.6922 353.426L38.6691 353.64C38.5734 354.077 38.4895 354.556 38.399 355.065C38.3092 355.57 38.2134 356.102 38.0958 356.627C37.8627 357.668 37.5331 358.737 36.9457 359.575L36.1267 359.002ZM37.6922 353.426C37.9159 352.404 38.1173 350.476 38.2986 348.091C38.4789 345.719 38.6372 342.928 38.7802 340.202C38.923 337.479 39.0508 334.815 39.1698 332.708C39.2293 331.654 39.2869 330.735 39.3433 330.013C39.3988 329.303 39.4554 328.752 39.5176 328.457L40.4962 328.662C40.4497 328.883 40.3969 329.368 40.3403 330.091C40.2847 330.802 40.2276 331.712 40.1682 332.764C40.0493 334.87 39.922 337.524 39.7788 340.254C39.6358 342.982 39.477 345.782 39.2957 348.167C39.1153 350.54 38.9102 352.538 38.6691 353.64L37.6922 353.426ZM39.5176 328.457C39.6505 327.824 39.7846 327.128 39.9442 326.44L40.9183 326.666C40.7618 327.341 40.6339 328.007 40.4962 328.662L39.5176 328.457ZM40.4789 327.05C33.3416 327.733 25.8422 327.741 18.9712 325.301L19.3059 324.359C25.9697 326.725 33.2941 326.733 40.3836 326.055L40.4789 327.05ZM18.9712 325.301C15.0725 323.916 11.4173 321.734 8.59572 318.603L9.33858 317.934C12.0269 320.917 15.5297 323.017 19.3059 324.359L18.9712 325.301ZM8.59572 318.603C5.18107 314.814 3.29621 310.061 2.33053 305.139L3.31182 304.947C4.25497 309.753 6.08176 314.32 9.33859 317.934L8.59572 318.603ZM2.33054 305.14C1.08936 298.818 0.827681 292.28 1.07056 285.88L2.06984 285.917C1.82885 292.269 2.09005 298.724 3.31181 304.947L2.33054 305.14ZM1.0707 285.876C1.40853 278.305 2.65218 270.596 5.75679 263.6L6.67083 264.006C3.63468 270.848 2.40435 278.421 2.0697 285.921L1.0707 285.876ZM5.87172 264.168C4.81765 263.179 3.93436 261.986 3.30292 260.694L4.20141 260.255C4.77901 261.437 5.58928 262.532 6.5559 263.439L5.87172 264.168Z" fill="#364152"/>
<path fill-rule="evenodd" clip-rule="evenodd" d="M102.462 122.861C104.648 121.96 106.598 120.457 108.024 118.537C108.52 117.869 108.649 117.165 108.545 116.52C108.428 115.795 108.003 115.138 107.424 114.698C106.844 114.256 106.118 114.038 105.415 114.149C104.805 114.245 104.198 114.583 103.717 115.283L103.617 115.423C102.769 116.582 101.664 117.532 100.406 118.145C99.1923 118.736 97.8354 119.012 96.4313 118.851C93.7571 118.546 91.9138 117.085 89.9547 115.101C89.7118 114.85 89.4688 114.592 89.2247 114.329C89.0704 114.091 88.8565 113.938 88.6189 113.858C88.3551 113.769 88.0566 113.774 87.7833 113.87C87.5197 113.963 87.284 114.139 87.126 114.374C86.9758 114.597 86.8906 114.872 86.9183 115.188C87.0976 117.245 88.1617 119.08 89.6732 120.521C91.352 122.121 93.5773 123.229 95.6723 123.617C97.9804 124.045 100.332 123.738 102.462 122.861V122.861Z" fill="#231F20"/>
<path fill-rule="evenodd" clip-rule="evenodd" d="M94.5833 91.1374C92.1277 92.6454 88.3861 96.1617 91.0278 99.9002C94.1373 103.197 98.6142 99.4171 100.82 97.7077C102.866 96.383 105.164 99.7901 103.266 101.337C87.3247 113.261 80.8552 91.5317 93.3413 89.3643C94.716 89.1255 95.2266 90.6709 94.5833 91.1374ZM123.151 77.2664C122.88 73.864 117.751 73.0914 117.24 76.4582C116.784 79.4741 117.321 82.2447 118.666 84.96C119.951 87.5541 123.18 86.3438 123.424 83.9817C123.752 80.8153 123.32 79.3829 123.151 77.2664ZM84.1082 75.7601C83.3932 74.8139 82.3607 74.168 81.1237 74.533C77.2589 75.674 78.398 81.2174 79.7553 83.9156C80.4928 85.3809 82.8768 85.7525 83.9541 84.4623C85.7101 82.3584 86.551 78.1567 84.3186 76.0843C84.2581 75.9772 84.1908 75.8692 84.1082 75.7601ZM118.72 62.3785L118.11 62.2706C116.221 61.9406 113.873 61.6235 112.537 63.1575C111.829 63.9709 111.585 65.4829 112.537 66.2615C114.212 67.6315 116.065 67.1006 118.072 67.2165C119.727 67.3125 121.317 67.5891 122.911 68.0494C126.407 69.059 129.256 70.902 132.242 72.9258C132.634 73.1913 133.034 72.685 132.847 72.3147C131.123 68.9036 127.783 66.1015 124.437 64.3934C122.651 63.4817 120.696 62.7255 118.72 62.3785ZM87.6313 60.8505L87.164 60.9471C82.0791 62.0209 75.4725 64.166 73.0645 69.2122C72.9728 69.9257 73.0697 70.0786 73.1485 70.1785L73.1748 70.2118C73.2397 70.2971 73.2916 70.4147 73.5977 70.5118C73.6827 70.4914 73.7685 70.4697 73.8552 70.4468C74.9589 70.1545 75.8322 69.7519 76.6777 69.3342L77.5944 68.8779C78.6579 68.3511 79.7308 67.8434 80.8679 67.4686C83.2944 66.669 85.7903 66.1057 88.3249 65.8049C88.8743 65.7398 89.4033 65.5524 89.8206 65.2314C90.2168 64.9267 90.5194 64.5048 90.6574 63.944C90.8362 63.2182 90.7848 62.6688 90.3994 62.014C90.1096 61.5224 89.6949 61.1815 89.2187 60.9858C88.7333 60.7863 88.1806 60.7393 87.6313 60.8505Z" fill="black"/>
<path fill-rule="evenodd" clip-rule="evenodd" d="M60.0246 82.5677C63.1249 103.755 84.7672 106.098 88.6125 85.0642C87.9953 84.7912 87.5514 84.2538 87.6441 83.2103C87.6659 78.6266 86.2575 73.782 82.1648 71.2329C77.9354 68.6027 72.9858 68.3418 68.0915 68.4082C58.7515 68.1835 58.948 76.0706 60.0246 82.5677M92.0005 73.3533C94.9317 73.2284 98.6401 73.3329 101.266 75.1372C101.988 73.1732 103.864 71.0762 105.759 69.9549C98.7146 70.1632 91.4637 69.4628 84.3668 68.919C86.0656 70.089 87.646 71.8466 88.6733 73.8786C89.6264 73.3651 90.9915 73.4131 92.0005 73.3533M104.921 84.8139C113.049 113.08 133.337 100.76 135.549 97.1372C139.539 91.1428 140.289 76.571 136.814 72.6749C131.839 69.1517 124.797 70.0584 118.92 69.972C108.124 70.1192 100.456 73.3822 104.921 84.8139M50.4276 71.8135C52.636 71.5217 54.9958 71.4629 57.049 72.4452C57.6812 69.7306 59.6658 67.461 61.9066 66.4623C62.1778 66.1187 62.1372 65.934 63.0636 65.9856C68.7527 64.2582 75.1188 65.1721 80.5858 66.9436C89.2201 67.6782 98.2787 68.2574 106.986 69.2696C115.142 65.569 139.756 65.0266 141.286 74.1477C143.21 73.857 146.487 72.327 148.103 74.4023C159.963 72.371 172.218 75.1941 184.129 76.4514C187.127 77.0093 188.671 83.0208 185.268 82.9387C183.355 82.414 185.327 79.1953 182.75 78.9532C171.258 77.6851 160.017 75.886 148.407 75.6754C148.811 77.7008 140.728 77.8326 140.609 76.6498C140.592 76.6587 140.573 76.6646 140.556 76.6725C142.553 84.1927 140.75 95.0153 137.141 99.6785C132.083 105.785 119.387 107.536 113.757 103.608C106.494 99.9817 98.9395 81.7802 101.062 75.7332C97.2102 74.4999 93.4026 74.8702 89.4054 75.4983C90.3205 78.1098 91.9002 84.5386 89.6275 85.0961C90.0447 97.8597 78.5472 105.824 67.9482 100.588C58.7745 96.2371 55.5662 82.4656 56.6887 74.1067C55.5467 76.3361 45.9577 73.9089 50.4276 71.8135" fill="black"/>
</svg>
